<?xml version="1.0" encoding="utf-8"?>
<svg xmlns="http://www.w3.org/2000/svg" xmlns:xlink="http://www.w3.org/1999/xlink" width="600" height="400" viewBox="0 0 2400 1600">
<defs>
  <clipPath id="clip050">
    <rect x="0" y="0" width="2400" height="1600"/>
  </clipPath>
</defs>
<path clip-path="url(#clip050)" d="M0 1600 L2400 1600 L2400 0 L0 0  Z" fill="#ffffff" fill-rule="evenodd" fill-opacity="1"/>
<defs>
  <clipPath id="clip051">
    <rect x="480" y="0" width="1681" height="1600"/>
  </clipPath>
</defs>
<path clip-path="url(#clip050)" d="M219.866 1423.18 L2352.76 1423.18 L2352.76 123.472 L219.866 123.472  Z" fill="#ffffff" fill-rule="evenodd" fill-opacity="1"/>
<defs>
  <clipPath id="clip052">
    <rect x="219" y="123" width="2134" height="1301"/>
  </clipPath>
</defs>
<polyline clip-path="url(#clip052)" style="stroke:#000000; stroke-linecap:round; stroke-linejoin:round; stroke-width:2; stroke-opacity:0.1; fill:none" points="557.77,1423.18 557.77,123.472 "/>
<polyline clip-path="url(#clip052)" style="stroke:#000000; stroke-linecap:round; stroke-linejoin:round; stroke-width:2; stroke-opacity:0.1; fill:none" points="904.695,1423.18 904.695,123.472 "/>
<polyline clip-path="url(#clip052)" style="stroke:#000000; stroke-linecap:round; stroke-linejoin:round; stroke-width:2; stroke-opacity:0.1; fill:none" points="1251.62,1423.18 1251.62,123.472 "/>
<polyline clip-path="url(#clip052)" style="stroke:#000000; stroke-linecap:round; stroke-linejoin:round; stroke-width:2; stroke-opacity:0.1; fill:none" points="1598.54,1423.18 1598.54,123.472 "/>
<polyline clip-path="url(#clip052)" style="stroke:#000000; stroke-linecap:round; stroke-linejoin:round; stroke-width:2; stroke-opacity:0.1; fill:none" points="1945.47,1423.18 1945.47,123.472 "/>
<polyline clip-path="url(#clip052)" style="stroke:#000000; stroke-linecap:round; stroke-linejoin:round; stroke-width:2; stroke-opacity:0.1; fill:none" points="2292.39,1423.18 2292.39,123.472 "/>
<polyline clip-path="url(#clip050)" style="stroke:#000000; stroke-linecap:round; stroke-linejoin:round; stroke-width:4; stroke-opacity:1; fill:none" points="219.866,1423.18 2352.76,1423.18 "/>
<polyline clip-path="url(#clip050)" style="stroke:#000000; stroke-linecap:round; stroke-linejoin:round; stroke-width:4; stroke-opacity:1; fill:none" points="557.77,1423.18 557.77,1404.28 "/>
<polyline clip-path="url(#clip050)" style="stroke:#000000; stroke-linecap:round; stroke-linejoin:round; stroke-width:4; stroke-opacity:1; fill:none" points="904.695,1423.18 904.695,1404.28 "/>
<polyline clip-path="url(#clip050)" style="stroke:#000000; stroke-linecap:round; stroke-linejoin:round; stroke-width:4; stroke-opacity:1; fill:none" points="1251.62,1423.18 1251.62,1404.28 "/>
<polyline clip-path="url(#clip050)" style="stroke:#000000; stroke-linecap:round; stroke-linejoin:round; stroke-width:4; stroke-opacity:1; fill:none" points="1598.54,1423.18 1598.54,1404.28 "/>
<polyline clip-path="url(#clip050)" style="stroke:#000000; stroke-linecap:round; stroke-linejoin:round; stroke-width:4; stroke-opacity:1; fill:none" points="1945.47,1423.18 1945.47,1404.28 "/>
<polyline clip-path="url(#clip050)" style="stroke:#000000; stroke-linecap:round; stroke-linejoin:round; stroke-width:4; stroke-opacity:1; fill:none" points="2292.39,1423.18 2292.39,1404.28 "/>
<path clip-path="url(#clip050)" d="M548.048 1451.02 L566.405 1451.02 L566.405 1454.96 L552.331 1454.96 L552.331 1463.43 Q553.349 1463.08 554.368 1462.92 Q555.386 1462.73 556.405 1462.73 Q562.192 1462.73 565.571 1465.9 Q568.951 1469.08 568.951 1474.49 Q568.951 1480.07 565.479 1483.17 Q562.006 1486.25 555.687 1486.25 Q553.511 1486.25 551.243 1485.88 Q548.997 1485.51 546.59 1484.77 L546.59 1480.07 Q548.673 1481.2 550.895 1481.76 Q553.118 1482.32 555.594 1482.32 Q559.599 1482.32 561.937 1480.21 Q564.275 1478.1 564.275 1474.49 Q564.275 1470.88 561.937 1468.77 Q559.599 1466.67 555.594 1466.67 Q553.719 1466.67 551.844 1467.08 Q549.993 1467.5 548.048 1468.38 L548.048 1451.02 Z" fill="#000000" fill-rule="nonzero" fill-opacity="1" /><path clip-path="url(#clip050)" d="M879.382 1481.64 L887.021 1481.64 L887.021 1455.28 L878.711 1456.95 L878.711 1452.69 L886.975 1451.02 L891.651 1451.02 L891.651 1481.64 L899.289 1481.64 L899.289 1485.58 L879.382 1485.58 L879.382 1481.64 Z" fill="#000000" fill-rule="nonzero" fill-opacity="1" /><path clip-path="url(#clip050)" d="M918.734 1454.1 Q915.123 1454.1 913.294 1457.66 Q911.488 1461.2 911.488 1468.33 Q911.488 1475.44 913.294 1479.01 Q915.123 1482.55 918.734 1482.55 Q922.368 1482.55 924.174 1479.01 Q926.002 1475.44 926.002 1468.33 Q926.002 1461.2 924.174 1457.66 Q922.368 1454.1 918.734 1454.1 M918.734 1450.39 Q924.544 1450.39 927.599 1455 Q930.678 1459.58 930.678 1468.33 Q930.678 1477.06 927.599 1481.67 Q924.544 1486.25 918.734 1486.25 Q912.924 1486.25 909.845 1481.67 Q906.789 1477.06 906.789 1468.33 Q906.789 1459.58 909.845 1455 Q912.924 1450.39 918.734 1450.39 Z" fill="#000000" fill-rule="nonzero" fill-opacity="1" /><path clip-path="url(#clip050)" d="M1226.8 1481.64 L1234.44 1481.64 L1234.44 1455.28 L1226.13 1456.95 L1226.13 1452.69 L1234.4 1451.02 L1239.07 1451.02 L1239.07 1481.64 L1246.71 1481.64 L1246.71 1485.58 L1226.8 1485.58 L1226.8 1481.64 Z" fill="#000000" fill-rule="nonzero" fill-opacity="1" /><path clip-path="url(#clip050)" d="M1256.2 1451.02 L1274.56 1451.02 L1274.56 1454.96 L1260.48 1454.96 L1260.48 1463.43 Q1261.5 1463.08 1262.52 1462.92 Q1263.54 1462.73 1264.56 1462.73 Q1270.35 1462.73 1273.73 1465.9 Q1277.1 1469.08 1277.1 1474.49 Q1277.1 1480.07 1273.63 1483.17 Q1270.16 1486.25 1263.84 1486.25 Q1261.66 1486.25 1259.4 1485.88 Q1257.15 1485.51 1254.74 1484.77 L1254.74 1480.07 Q1256.83 1481.2 1259.05 1481.76 Q1261.27 1482.32 1263.75 1482.32 Q1267.75 1482.32 1270.09 1480.21 Q1272.43 1478.1 1272.43 1474.49 Q1272.43 1470.88 1270.09 1468.77 Q1267.75 1466.67 1263.75 1466.67 Q1261.87 1466.67 1260 1467.08 Q1258.15 1467.5 1256.2 1468.38 L1256.2 1451.02 Z" fill="#000000" fill-rule="nonzero" fill-opacity="1" /><path clip-path="url(#clip050)" d="M1577.32 1481.64 L1593.64 1481.64 L1593.64 1485.58 L1571.69 1485.58 L1571.69 1481.64 Q1574.35 1478.89 1578.94 1474.26 Q1583.54 1469.61 1584.72 1468.27 Q1586.97 1465.74 1587.85 1464.01 Q1588.75 1462.25 1588.75 1460.56 Q1588.75 1457.8 1586.81 1456.07 Q1584.89 1454.33 1581.78 1454.33 Q1579.58 1454.33 1577.13 1455.09 Q1574.7 1455.86 1571.92 1457.41 L1571.92 1452.69 Q1574.75 1451.55 1577.2 1450.97 Q1579.65 1450.39 1581.69 1450.39 Q1587.06 1450.39 1590.26 1453.08 Q1593.45 1455.77 1593.45 1460.26 Q1593.45 1462.39 1592.64 1464.31 Q1591.85 1466.2 1589.75 1468.8 Q1589.17 1469.47 1586.07 1472.69 Q1582.96 1475.88 1577.32 1481.64 Z" fill="#000000" fill-rule="nonzero" fill-opacity="1" /><path clip-path="url(#clip050)" d="M1613.45 1454.1 Q1609.84 1454.1 1608.01 1457.66 Q1606.2 1461.2 1606.2 1468.33 Q1606.2 1475.44 1608.01 1479.01 Q1609.84 1482.55 1613.45 1482.55 Q1617.08 1482.55 1618.89 1479.01 Q1620.72 1475.44 1620.72 1468.33 Q1620.72 1461.2 1618.89 1457.66 Q1617.08 1454.1 1613.45 1454.1 M1613.45 1450.39 Q1619.26 1450.39 1622.32 1455 Q1625.39 1459.58 1625.39 1468.33 Q1625.39 1477.06 1622.32 1481.67 Q1619.26 1486.25 1613.45 1486.25 Q1607.64 1486.25 1604.56 1481.67 Q1601.51 1477.06 1601.51 1468.33 Q1601.51 1459.58 1604.56 1455 Q1607.64 1450.39 1613.45 1450.39 Z" fill="#000000" fill-rule="nonzero" fill-opacity="1" /><path clip-path="url(#clip050)" d="M1924.74 1481.64 L1941.06 1481.64 L1941.06 1485.58 L1919.11 1485.58 L1919.11 1481.64 Q1921.77 1478.89 1926.36 1474.26 Q1930.96 1469.61 1932.15 1468.27 Q1934.39 1465.74 1935.27 1464.01 Q1936.17 1462.25 1936.17 1460.56 Q1936.17 1457.8 1934.23 1456.07 Q1932.31 1454.33 1929.21 1454.33 Q1927.01 1454.33 1924.55 1455.09 Q1922.12 1455.86 1919.34 1457.41 L1919.34 1452.69 Q1922.17 1451.55 1924.62 1450.97 Q1927.08 1450.39 1929.11 1450.39 Q1934.48 1450.39 1937.68 1453.08 Q1940.87 1455.77 1940.87 1460.26 Q1940.87 1462.39 1940.06 1464.31 Q1939.27 1466.2 1937.17 1468.8 Q1936.59 1469.47 1933.49 1472.69 Q1930.39 1475.88 1924.74 1481.64 Z" fill="#000000" fill-rule="nonzero" fill-opacity="1" /><path clip-path="url(#clip050)" d="M1950.92 1451.02 L1969.27 1451.02 L1969.27 1454.96 L1955.2 1454.96 L1955.2 1463.43 Q1956.22 1463.08 1957.24 1462.92 Q1958.26 1462.73 1959.27 1462.73 Q1965.06 1462.73 1968.44 1465.9 Q1971.82 1469.08 1971.82 1474.49 Q1971.82 1480.07 1968.35 1483.17 Q1964.88 1486.25 1958.56 1486.25 Q1956.38 1486.25 1954.11 1485.88 Q1951.87 1485.51 1949.46 1484.77 L1949.46 1480.07 Q1951.54 1481.2 1953.77 1481.76 Q1955.99 1482.32 1958.46 1482.32 Q1962.47 1482.32 1964.81 1480.21 Q1967.15 1478.1 1967.15 1474.49 Q1967.15 1470.88 1964.81 1468.77 Q1962.47 1466.67 1958.46 1466.67 Q1956.59 1466.67 1954.71 1467.08 Q1952.86 1467.5 1950.92 1468.38 L1950.92 1451.02 Z" fill="#000000" fill-rule="nonzero" fill-opacity="1" /><path clip-path="url(#clip050)" d="M2281.23 1466.95 Q2284.59 1467.66 2286.47 1469.93 Q2288.36 1472.2 2288.36 1475.53 Q2288.36 1480.65 2284.84 1483.45 Q2281.33 1486.25 2274.84 1486.25 Q2272.67 1486.25 2270.35 1485.81 Q2268.06 1485.39 2265.61 1484.54 L2265.61 1480.02 Q2267.55 1481.16 2269.87 1481.74 Q2272.18 1482.32 2274.71 1482.32 Q2279.1 1482.32 2281.4 1480.58 Q2283.71 1478.84 2283.71 1475.53 Q2283.71 1472.48 2281.56 1470.77 Q2279.43 1469.03 2275.61 1469.03 L2271.58 1469.03 L2271.58 1465.19 L2275.79 1465.19 Q2279.24 1465.19 2281.07 1463.82 Q2282.9 1462.43 2282.9 1459.84 Q2282.9 1457.18 2281 1455.77 Q2279.13 1454.33 2275.61 1454.33 Q2273.69 1454.33 2271.49 1454.75 Q2269.29 1455.16 2266.65 1456.04 L2266.65 1451.88 Q2269.31 1451.14 2271.63 1450.77 Q2273.97 1450.39 2276.03 1450.39 Q2281.35 1450.39 2284.45 1452.83 Q2287.55 1455.23 2287.55 1459.35 Q2287.55 1462.22 2285.91 1464.21 Q2284.27 1466.18 2281.23 1466.95 Z" fill="#000000" fill-rule="nonzero" fill-opacity="1" /><path clip-path="url(#clip050)" d="M2307.23 1454.1 Q2303.62 1454.1 2301.79 1457.66 Q2299.98 1461.2 2299.98 1468.33 Q2299.98 1475.44 2301.79 1479.01 Q2303.62 1482.55 2307.23 1482.55 Q2310.86 1482.55 2312.67 1479.01 Q2314.5 1475.44 2314.5 1468.33 Q2314.5 1461.2 2312.67 1457.66 Q2310.86 1454.1 2307.23 1454.1 M2307.23 1450.39 Q2313.04 1450.39 2316.09 1455 Q2319.17 1459.58 2319.17 1468.33 Q2319.17 1477.06 2316.09 1481.67 Q2313.04 1486.25 2307.23 1486.25 Q2301.42 1486.25 2298.34 1481.67 Q2295.28 1477.06 2295.28 1468.33 Q2295.28 1459.58 2298.34 1455 Q2301.42 1450.39 2307.23 1450.39 Z" fill="#000000" fill-rule="nonzero" fill-opacity="1" /><path clip-path="url(#clip050)" d="M1192.42 1539.37 L1183.15 1539.37 L1180.48 1550 L1189.81 1550 L1192.42 1539.37 M1187.64 1521.26 L1184.33 1534.46 L1193.63 1534.46 L1196.97 1521.26 L1202.06 1521.26 L1198.78 1534.46 L1208.71 1534.46 L1208.71 1539.37 L1197.54 1539.37 L1194.93 1550 L1205.05 1550 L1205.05 1554.87 L1193.69 1554.87 L1190.38 1568.04 L1185.29 1568.04 L1188.57 1554.87 L1179.24 1554.87 L1175.96 1568.04 L1170.84 1568.04 L1174.15 1554.87 L1164.12 1554.87 L1164.12 1550 L1175.32 1550 L1178 1539.37 L1167.75 1539.37 L1167.75 1534.46 L1179.24 1534.46 L1182.49 1521.26 L1187.64 1521.26 Z" fill="#000000" fill-rule="nonzero" fill-opacity="1" /><path clip-path="url(#clip050)" d="M1245.44 1550.25 Q1245.44 1543.79 1242.77 1540.13 Q1240.13 1536.44 1235.48 1536.44 Q1230.83 1536.44 1228.16 1540.13 Q1225.52 1543.79 1225.52 1550.25 Q1225.52 1556.71 1228.16 1560.4 Q1230.83 1564.07 1235.48 1564.07 Q1240.13 1564.07 1242.77 1560.4 Q1245.44 1556.71 1245.44 1550.25 M1225.52 1537.81 Q1227.36 1534.62 1230.17 1533.1 Q1233 1531.54 1236.91 1531.54 Q1243.41 1531.54 1247.45 1536.69 Q1251.52 1541.85 1251.52 1550.25 Q1251.52 1558.65 1247.45 1563.81 Q1243.41 1568.97 1236.91 1568.97 Q1233 1568.97 1230.17 1567.44 Q1227.36 1565.88 1225.52 1562.7 L1225.52 1568.04 L1219.63 1568.04 L1219.63 1518.52 L1225.52 1518.52 L1225.52 1537.81 Z" fill="#000000" fill-rule="nonzero" fill-opacity="1" /><path clip-path="url(#clip050)" d="M1277.43 1550.12 Q1270.33 1550.12 1267.6 1551.75 Q1264.86 1553.37 1264.86 1557.29 Q1264.86 1560.4 1266.9 1562.25 Q1268.96 1564.07 1272.5 1564.07 Q1277.37 1564.07 1280.3 1560.63 Q1283.26 1557.16 1283.26 1551.43 L1283.26 1550.12 L1277.43 1550.12 M1289.11 1547.71 L1289.11 1568.04 L1283.26 1568.04 L1283.26 1562.63 Q1281.25 1565.88 1278.26 1567.44 Q1275.27 1568.97 1270.94 1568.97 Q1265.46 1568.97 1262.22 1565.91 Q1259 1562.82 1259 1557.67 Q1259 1551.65 1263.01 1548.6 Q1267.05 1545.54 1275.04 1545.54 L1283.26 1545.54 L1283.26 1544.97 Q1283.26 1540.93 1280.58 1538.73 Q1277.94 1536.5 1273.13 1536.5 Q1270.08 1536.5 1267.18 1537.23 Q1264.29 1537.97 1261.61 1539.43 L1261.61 1534.02 Q1264.83 1532.78 1267.85 1532.17 Q1270.87 1531.54 1273.74 1531.54 Q1281.47 1531.54 1285.29 1535.55 Q1289.11 1539.56 1289.11 1547.71 Z" fill="#000000" fill-rule="nonzero" fill-opacity="1" /><path clip-path="url(#clip050)" d="M1330.81 1546.53 L1330.81 1568.04 L1324.95 1568.04 L1324.95 1546.72 Q1324.95 1541.66 1322.98 1539.14 Q1321 1536.63 1317.06 1536.63 Q1312.31 1536.63 1309.58 1539.65 Q1306.84 1542.68 1306.84 1547.9 L1306.84 1568.04 L1300.95 1568.04 L1300.95 1532.4 L1306.84 1532.4 L1306.84 1537.93 Q1308.94 1534.72 1311.77 1533.13 Q1314.64 1531.54 1318.36 1531.54 Q1324.51 1531.54 1327.66 1535.36 Q1330.81 1539.14 1330.81 1546.53 Z" fill="#000000" fill-rule="nonzero" fill-opacity="1" /><path clip-path="url(#clip050)" d="M1365.95 1537.81 L1365.95 1518.52 L1371.8 1518.52 L1371.8 1568.04 L1365.95 1568.04 L1365.95 1562.7 Q1364.1 1565.88 1361.27 1567.44 Q1358.47 1568.97 1354.52 1568.97 Q1348.06 1568.97 1343.98 1563.81 Q1339.94 1558.65 1339.94 1550.25 Q1339.94 1541.85 1343.98 1536.69 Q1348.06 1531.54 1354.52 1531.54 Q1358.47 1531.54 1361.27 1533.1 Q1364.1 1534.62 1365.95 1537.81 M1345.99 1550.25 Q1345.99 1556.71 1348.63 1560.4 Q1351.3 1564.07 1355.95 1564.07 Q1360.6 1564.07 1363.27 1560.4 Q1365.95 1556.71 1365.95 1550.25 Q1365.95 1543.79 1363.27 1540.13 Q1360.6 1536.44 1355.95 1536.44 Q1351.3 1536.44 1348.63 1540.13 Q1345.99 1543.79 1345.99 1550.25 Z" fill="#000000" fill-rule="nonzero" fill-opacity="1" /><path clip-path="url(#clip050)" d="M1406.59 1533.45 L1406.59 1538.98 Q1404.11 1537.71 1401.43 1537.07 Q1398.76 1536.44 1395.9 1536.44 Q1391.54 1536.44 1389.34 1537.77 Q1387.18 1539.11 1387.18 1541.79 Q1387.18 1543.82 1388.74 1545 Q1390.29 1546.15 1395.01 1547.2 L1397.01 1547.64 Q1403.25 1548.98 1405.86 1551.43 Q1408.5 1553.85 1408.5 1558.21 Q1408.5 1563.17 1404.55 1566.07 Q1400.64 1568.97 1393.76 1568.97 Q1390.9 1568.97 1387.78 1568.39 Q1384.69 1567.85 1381.26 1566.74 L1381.26 1560.69 Q1384.5 1562.38 1387.65 1563.24 Q1390.8 1564.07 1393.89 1564.07 Q1398.03 1564.07 1400.26 1562.66 Q1402.49 1561.23 1402.49 1558.65 Q1402.49 1556.27 1400.86 1554.99 Q1399.27 1553.72 1393.83 1552.54 L1391.79 1552.07 Q1386.35 1550.92 1383.93 1548.56 Q1381.51 1546.18 1381.51 1542.04 Q1381.51 1537.01 1385.08 1534.27 Q1388.64 1531.54 1395.2 1531.54 Q1398.44 1531.54 1401.31 1532.01 Q1404.17 1532.49 1406.59 1533.45 Z" fill="#000000" fill-rule="nonzero" fill-opacity="1" /><polyline clip-path="url(#clip052)" style="stroke:#000000; stroke-linecap:round; stroke-linejoin:round; stroke-width:2; stroke-opacity:0.1; fill:none" points="219.866,1423.18 2352.76,1423.18 "/>
<polyline clip-path="url(#clip052)" style="stroke:#000000; stroke-linecap:round; stroke-linejoin:round; stroke-width:2; stroke-opacity:0.1; fill:none" points="219.866,1163.24 2352.76,1163.24 "/>
<polyline clip-path="url(#clip052)" style="stroke:#000000; stroke-linecap:round; stroke-linejoin:round; stroke-width:2; stroke-opacity:0.1; fill:none" points="219.866,903.297 2352.76,903.297 "/>
<polyline clip-path="url(#clip052)" style="stroke:#000000; stroke-linecap:round; stroke-linejoin:round; stroke-width:2; stroke-opacity:0.1; fill:none" points="219.866,643.355 2352.76,643.355 "/>
<polyline clip-path="url(#clip052)" style="stroke:#000000; stroke-linecap:round; stroke-linejoin:round; stroke-width:2; stroke-opacity:0.1; fill:none" points="219.866,383.414 2352.76,383.414 "/>
<polyline clip-path="url(#clip052)" style="stroke:#000000; stroke-linecap:round; stroke-linejoin:round; stroke-width:2; stroke-opacity:0.1; fill:none" points="219.866,123.472 2352.76,123.472 "/>
<polyline clip-path="url(#clip050)" style="stroke:#000000; stroke-linecap:round; stroke-linejoin:round; stroke-width:4; stroke-opacity:1; fill:none" points="219.866,1423.18 219.866,123.472 "/>
<polyline clip-path="url(#clip050)" style="stroke:#000000; stroke-linecap:round; stroke-linejoin:round; stroke-width:4; stroke-opacity:1; fill:none" points="219.866,1423.18 238.764,1423.18 "/>
<polyline clip-path="url(#clip050)" style="stroke:#000000; stroke-linecap:round; stroke-linejoin:round; stroke-width:4; stroke-opacity:1; fill:none" points="219.866,1163.24 238.764,1163.24 "/>
<polyline clip-path="url(#clip050)" style="stroke:#000000; stroke-linecap:round; stroke-linejoin:round; stroke-width:4; stroke-opacity:1; fill:none" points="219.866,903.297 238.764,903.297 "/>
<polyline clip-path="url(#clip050)" style="stroke:#000000; stroke-linecap:round; stroke-linejoin:round; stroke-width:4; stroke-opacity:1; fill:none" points="219.866,643.355 238.764,643.355 "/>
<polyline clip-path="url(#clip050)" style="stroke:#000000; stroke-linecap:round; stroke-linejoin:round; stroke-width:4; stroke-opacity:1; fill:none" points="219.866,383.414 238.764,383.414 "/>
<polyline clip-path="url(#clip050)" style="stroke:#000000; stroke-linecap:round; stroke-linejoin:round; stroke-width:4; stroke-opacity:1; fill:none" points="219.866,123.472 238.764,123.472 "/>
<path clip-path="url(#clip050)" d="M126.691 1408.98 Q123.08 1408.98 121.251 1412.54 Q119.445 1416.08 119.445 1423.21 Q119.445 1430.32 121.251 1433.89 Q123.08 1437.43 126.691 1437.43 Q130.325 1437.43 132.13 1433.89 Q133.959 1430.32 133.959 1423.21 Q133.959 1416.08 132.13 1412.54 Q130.325 1408.98 126.691 1408.98 M126.691 1405.27 Q132.501 1405.27 135.556 1409.88 Q138.635 1414.46 138.635 1423.21 Q138.635 1431.94 135.556 1436.55 Q132.501 1441.13 126.691 1441.13 Q120.88 1441.13 117.802 1436.55 Q114.746 1431.94 114.746 1423.21 Q114.746 1414.46 117.802 1409.88 Q120.88 1405.27 126.691 1405.27 Z" fill="#000000" fill-rule="nonzero" fill-opacity="1" /><path clip-path="url(#clip050)" d="M146.853 1434.58 L151.737 1434.58 L151.737 1440.46 L146.853 1440.46 L146.853 1434.58 Z" fill="#000000" fill-rule="nonzero" fill-opacity="1" /><path clip-path="url(#clip050)" d="M171.922 1408.98 Q168.311 1408.98 166.482 1412.54 Q164.677 1416.08 164.677 1423.21 Q164.677 1430.32 166.482 1433.89 Q168.311 1437.43 171.922 1437.43 Q175.556 1437.43 177.362 1433.89 Q179.19 1430.32 179.19 1423.21 Q179.19 1416.08 177.362 1412.54 Q175.556 1408.98 171.922 1408.98 M171.922 1405.27 Q177.732 1405.27 180.788 1409.88 Q183.866 1414.46 183.866 1423.21 Q183.866 1431.94 180.788 1436.55 Q177.732 1441.13 171.922 1441.13 Q166.112 1441.13 163.033 1436.55 Q159.978 1431.94 159.978 1423.21 Q159.978 1414.46 163.033 1409.88 Q166.112 1405.27 171.922 1405.27 Z" fill="#000000" fill-rule="nonzero" fill-opacity="1" /><path clip-path="url(#clip050)" d="M128.288 1149.04 Q124.677 1149.04 122.848 1152.6 Q121.043 1156.14 121.043 1163.27 Q121.043 1170.38 122.848 1173.94 Q124.677 1177.49 128.288 1177.49 Q131.922 1177.49 133.728 1173.94 Q135.556 1170.38 135.556 1163.27 Q135.556 1156.14 133.728 1152.6 Q131.922 1149.04 128.288 1149.04 M128.288 1145.33 Q134.098 1145.33 137.154 1149.94 Q140.232 1154.52 140.232 1163.27 Q140.232 1172 137.154 1176.61 Q134.098 1181.19 128.288 1181.19 Q122.478 1181.19 119.399 1176.61 Q116.343 1172 116.343 1163.27 Q116.343 1154.52 119.399 1149.94 Q122.478 1145.33 128.288 1145.33 Z" fill="#000000" fill-rule="nonzero" fill-opacity="1" /><path clip-path="url(#clip050)" d="M148.45 1174.64 L153.334 1174.64 L153.334 1180.52 L148.45 1180.52 L148.45 1174.64 Z" fill="#000000" fill-rule="nonzero" fill-opacity="1" /><path clip-path="url(#clip050)" d="M167.547 1176.58 L183.866 1176.58 L183.866 1180.52 L161.922 1180.52 L161.922 1176.58 Q164.584 1173.83 169.167 1169.2 Q173.774 1164.55 174.954 1163.2 Q177.2 1160.68 178.079 1158.94 Q178.982 1157.19 178.982 1155.5 Q178.982 1152.74 177.038 1151 Q175.116 1149.27 172.014 1149.27 Q169.815 1149.27 167.362 1150.03 Q164.931 1150.8 162.153 1152.35 L162.153 1147.62 Q164.977 1146.49 167.431 1145.91 Q169.885 1145.33 171.922 1145.33 Q177.292 1145.33 180.487 1148.02 Q183.681 1150.7 183.681 1155.19 Q183.681 1157.32 182.871 1159.25 Q182.084 1161.14 179.977 1163.74 Q179.399 1164.41 176.297 1167.62 Q173.195 1170.82 167.547 1176.58 Z" fill="#000000" fill-rule="nonzero" fill-opacity="1" /><path clip-path="url(#clip050)" d="M126.205 889.095 Q122.593 889.095 120.765 892.66 Q118.959 896.202 118.959 903.331 Q118.959 910.438 120.765 914.003 Q122.593 917.544 126.205 917.544 Q129.839 917.544 131.644 914.003 Q133.473 910.438 133.473 903.331 Q133.473 896.202 131.644 892.66 Q129.839 889.095 126.205 889.095 M126.205 885.392 Q132.015 885.392 135.07 889.998 Q138.149 894.582 138.149 903.331 Q138.149 912.058 135.07 916.665 Q132.015 921.248 126.205 921.248 Q120.394 921.248 117.316 916.665 Q114.26 912.058 114.26 903.331 Q114.26 894.582 117.316 889.998 Q120.394 885.392 126.205 885.392 Z" fill="#000000" fill-rule="nonzero" fill-opacity="1" /><path clip-path="url(#clip050)" d="M146.366 914.697 L151.251 914.697 L151.251 920.577 L146.366 920.577 L146.366 914.697 Z" fill="#000000" fill-rule="nonzero" fill-opacity="1" /><path clip-path="url(#clip050)" d="M174.283 890.091 L162.477 908.54 L174.283 908.54 L174.283 890.091 M173.056 886.017 L178.936 886.017 L178.936 908.54 L183.866 908.54 L183.866 912.429 L178.936 912.429 L178.936 920.577 L174.283 920.577 L174.283 912.429 L158.681 912.429 L158.681 907.915 L173.056 886.017 Z" fill="#000000" fill-rule="nonzero" fill-opacity="1" /><path clip-path="url(#clip050)" d="M126.529 629.154 Q122.918 629.154 121.089 632.719 Q119.283 636.26 119.283 643.39 Q119.283 650.496 121.089 654.061 Q122.918 657.603 126.529 657.603 Q130.163 657.603 131.968 654.061 Q133.797 650.496 133.797 643.39 Q133.797 636.26 131.968 632.719 Q130.163 629.154 126.529 629.154 M126.529 625.45 Q132.339 625.45 135.394 630.057 Q138.473 634.64 138.473 643.39 Q138.473 652.117 135.394 656.723 Q132.339 661.307 126.529 661.307 Q120.718 661.307 117.64 656.723 Q114.584 652.117 114.584 643.39 Q114.584 634.64 117.64 630.057 Q120.718 625.45 126.529 625.45 Z" fill="#000000" fill-rule="nonzero" fill-opacity="1" /><path clip-path="url(#clip050)" d="M146.691 654.756 L151.575 654.756 L151.575 660.635 L146.691 660.635 L146.691 654.756 Z" fill="#000000" fill-rule="nonzero" fill-opacity="1" /><path clip-path="url(#clip050)" d="M172.339 641.492 Q169.19 641.492 167.339 643.645 Q165.51 645.797 165.51 649.547 Q165.51 653.274 167.339 655.45 Q169.19 657.603 172.339 657.603 Q175.487 657.603 177.315 655.45 Q179.167 653.274 179.167 649.547 Q179.167 645.797 177.315 643.645 Q175.487 641.492 172.339 641.492 M181.621 626.839 L181.621 631.098 Q179.862 630.265 178.056 629.825 Q176.274 629.385 174.514 629.385 Q169.885 629.385 167.431 632.51 Q165.001 635.635 164.653 641.955 Q166.019 639.941 168.079 638.876 Q170.139 637.788 172.616 637.788 Q177.825 637.788 180.834 640.959 Q183.866 644.108 183.866 649.547 Q183.866 654.871 180.718 658.089 Q177.57 661.307 172.339 661.307 Q166.343 661.307 163.172 656.723 Q160.001 652.117 160.001 643.39 Q160.001 635.196 163.89 630.334 Q167.778 625.45 174.329 625.45 Q176.089 625.45 177.871 625.797 Q179.676 626.145 181.621 626.839 Z" fill="#000000" fill-rule="nonzero" fill-opacity="1" /><path clip-path="url(#clip050)" d="M126.783 369.212 Q123.172 369.212 121.343 372.777 Q119.538 376.319 119.538 383.448 Q119.538 390.555 121.343 394.12 Q123.172 397.661 126.783 397.661 Q130.417 397.661 132.223 394.12 Q134.052 390.555 134.052 383.448 Q134.052 376.319 132.223 372.777 Q130.417 369.212 126.783 369.212 M126.783 365.509 Q132.593 365.509 135.649 370.115 Q138.728 374.698 138.728 383.448 Q138.728 392.175 135.649 396.782 Q132.593 401.365 126.783 401.365 Q120.973 401.365 117.894 396.782 Q114.839 392.175 114.839 383.448 Q114.839 374.698 117.894 370.115 Q120.973 365.509 126.783 365.509 Z" fill="#000000" fill-rule="nonzero" fill-opacity="1" /><path clip-path="url(#clip050)" d="M146.945 394.814 L151.829 394.814 L151.829 400.694 L146.945 400.694 L146.945 394.814 Z" fill="#000000" fill-rule="nonzero" fill-opacity="1" /><path clip-path="url(#clip050)" d="M172.014 384.282 Q168.681 384.282 166.76 386.064 Q164.862 387.847 164.862 390.971 Q164.862 394.096 166.76 395.879 Q168.681 397.661 172.014 397.661 Q175.348 397.661 177.269 395.879 Q179.19 394.073 179.19 390.971 Q179.19 387.847 177.269 386.064 Q175.371 384.282 172.014 384.282 M167.339 382.291 Q164.329 381.55 162.64 379.49 Q160.973 377.43 160.973 374.467 Q160.973 370.323 163.913 367.916 Q166.876 365.509 172.014 365.509 Q177.176 365.509 180.116 367.916 Q183.056 370.323 183.056 374.467 Q183.056 377.43 181.366 379.49 Q179.7 381.55 176.714 382.291 Q180.093 383.078 181.968 385.37 Q183.866 387.661 183.866 390.971 Q183.866 395.995 180.788 398.68 Q177.732 401.365 172.014 401.365 Q166.297 401.365 163.218 398.68 Q160.163 395.995 160.163 390.971 Q160.163 387.661 162.061 385.37 Q163.959 383.078 167.339 382.291 M165.626 374.907 Q165.626 377.592 167.292 379.097 Q168.982 380.601 172.014 380.601 Q175.024 380.601 176.714 379.097 Q178.426 377.592 178.426 374.907 Q178.426 372.222 176.714 370.717 Q175.024 369.212 172.014 369.212 Q168.982 369.212 167.292 370.717 Q165.626 372.222 165.626 374.907 Z" fill="#000000" fill-rule="nonzero" fill-opacity="1" /><path clip-path="url(#clip050)" d="M117.501 136.817 L125.14 136.817 L125.14 110.451 L116.83 112.118 L116.83 107.859 L125.093 106.192 L129.769 106.192 L129.769 136.817 L137.408 136.817 L137.408 140.752 L117.501 140.752 L117.501 136.817 Z" fill="#000000" fill-rule="nonzero" fill-opacity="1" /><path clip-path="url(#clip050)" d="M146.853 134.873 L151.737 134.873 L151.737 140.752 L146.853 140.752 L146.853 134.873 Z" fill="#000000" fill-rule="nonzero" fill-opacity="1" /><path clip-path="url(#clip050)" d="M171.922 109.271 Q168.311 109.271 166.482 112.836 Q164.677 116.377 164.677 123.507 Q164.677 130.613 166.482 134.178 Q168.311 137.72 171.922 137.72 Q175.556 137.72 177.362 134.178 Q179.19 130.613 179.19 123.507 Q179.19 116.377 177.362 112.836 Q175.556 109.271 171.922 109.271 M171.922 105.567 Q177.732 105.567 180.788 110.174 Q183.866 114.757 183.866 123.507 Q183.866 132.234 180.788 136.84 Q177.732 141.423 171.922 141.423 Q166.112 141.423 163.033 136.84 Q159.978 132.234 159.978 123.507 Q159.978 114.757 163.033 110.174 Q166.112 105.567 171.922 105.567 Z" fill="#000000" fill-rule="nonzero" fill-opacity="1" /><path clip-path="url(#clip050)" d="M41.7242 929.302 Q42.4244 927.233 44.7161 925.291 Q47.0077 923.318 51.0181 921.345 L64.0042 914.82 L64.0042 921.727 L51.8138 927.806 Q47.0395 930.161 45.48 932.389 Q43.9204 934.585 43.9204 938.405 L43.9204 945.407 L64.0042 945.407 L64.0042 951.836 L16.4842 951.836 L16.4842 937.323 Q16.4842 929.174 19.8898 925.164 Q23.2955 921.154 30.1704 921.154 Q34.6582 921.154 37.6183 923.254 Q40.5784 925.323 41.7242 929.302 M21.7677 945.407 L38.6368 945.407 L38.6368 937.323 Q38.6368 932.676 36.5043 930.32 Q34.34 927.933 30.1704 927.933 Q26.0009 927.933 23.9002 930.32 Q21.7677 932.676 21.7677 937.323 L21.7677 945.407 Z" fill="#000000" fill-rule="nonzero" fill-opacity="1" /><path clip-path="url(#clip050)" d="M46.0847 892.03 Q46.0847 899.128 47.7079 901.866 Q49.3312 904.603 53.2461 904.603 Q56.3653 904.603 58.2114 902.566 Q60.0256 900.497 60.0256 896.964 Q60.0256 892.094 56.5881 889.166 Q53.1188 886.206 47.3897 886.206 L46.0847 886.206 L46.0847 892.03 M43.6657 880.349 L64.0042 880.349 L64.0042 886.206 L58.5933 886.206 Q61.8398 888.211 63.3994 891.203 Q64.9272 894.195 64.9272 898.524 Q64.9272 903.998 61.8716 907.245 Q58.7843 910.459 53.6281 910.459 Q47.6125 910.459 44.5569 906.449 Q41.5014 902.407 41.5014 894.418 L41.5014 886.206 L40.9285 886.206 Q36.8862 886.206 34.6901 888.879 Q32.4621 891.521 32.4621 896.327 Q32.4621 899.383 33.1941 902.279 Q33.9262 905.176 35.3903 907.849 L29.9795 907.849 Q28.7381 904.635 28.1334 901.611 Q27.4968 898.587 27.4968 895.723 Q27.4968 887.988 31.5072 884.169 Q35.5176 880.349 43.6657 880.349 Z" fill="#000000" fill-rule="nonzero" fill-opacity="1" /><path clip-path="url(#clip050)" d="M42.4881 838.654 L64.0042 838.654 L64.0042 844.51 L42.679 844.51 Q37.6183 844.51 35.1038 846.484 Q32.5894 848.457 32.5894 852.404 Q32.5894 857.146 35.6131 859.884 Q38.6368 862.621 43.8567 862.621 L64.0042 862.621 L64.0042 868.509 L28.3562 868.509 L28.3562 862.621 L33.8944 862.621 Q30.6797 860.52 29.0883 857.688 Q27.4968 854.823 27.4968 851.099 Q27.4968 844.956 31.3163 841.805 Q35.1038 838.654 42.4881 838.654 Z" fill="#000000" fill-rule="nonzero" fill-opacity="1" /><path clip-path="url(#clip050)" d="M33.7671 803.515 L14.479 803.515 L14.479 797.659 L64.0042 797.659 L64.0042 803.515 L58.657 803.515 Q61.8398 805.361 63.3994 808.194 Q64.9272 810.995 64.9272 814.942 Q64.9272 821.403 59.771 825.477 Q54.6147 829.519 46.212 829.519 Q37.8093 829.519 32.6531 825.477 Q27.4968 821.403 27.4968 814.942 Q27.4968 810.995 29.0564 808.194 Q30.5842 805.361 33.7671 803.515 M46.212 823.472 Q52.6732 823.472 56.3653 820.83 Q60.0256 818.156 60.0256 813.51 Q60.0256 808.863 56.3653 806.189 Q52.6732 803.515 46.212 803.515 Q39.7508 803.515 36.0905 806.189 Q32.3984 808.863 32.3984 813.51 Q32.3984 818.156 36.0905 820.83 Q39.7508 823.472 46.212 823.472 Z" fill="#000000" fill-rule="nonzero" fill-opacity="1" /><path clip-path="url(#clip050)" d="M28.3562 764.876 L28.3562 759.019 L64.0042 759.019 L64.0042 764.876 L28.3562 764.876 M14.479 764.876 L14.479 759.019 L21.895 759.019 L21.895 764.876 L14.479 764.876 Z" fill="#000000" fill-rule="nonzero" fill-opacity="1" /><path clip-path="url(#clip050)" d="M42.4881 717.133 L64.0042 717.133 L64.0042 722.989 L42.679 722.989 Q37.6183 722.989 35.1038 724.963 Q32.5894 726.936 32.5894 730.883 Q32.5894 735.625 35.6131 738.362 Q38.6368 741.1 43.8567 741.1 L64.0042 741.1 L64.0042 746.988 L28.3562 746.988 L28.3562 741.1 L33.8944 741.1 Q30.6797 738.999 29.0883 736.166 Q27.4968 733.302 27.4968 729.578 Q27.4968 723.435 31.3163 720.284 Q35.1038 717.133 42.4881 717.133 Z" fill="#000000" fill-rule="nonzero" fill-opacity="1" /><path clip-path="url(#clip050)" d="M33.7671 681.994 L14.479 681.994 L14.479 676.138 L64.0042 676.138 L64.0042 681.994 L58.657 681.994 Q61.8398 683.84 63.3994 686.673 Q64.9272 689.474 64.9272 693.42 Q64.9272 699.882 59.771 703.956 Q54.6147 707.998 46.212 707.998 Q37.8093 707.998 32.6531 703.956 Q27.4968 699.882 27.4968 693.42 Q27.4968 689.474 29.0564 686.673 Q30.5842 683.84 33.7671 681.994 M46.212 701.95 Q52.6732 701.95 56.3653 699.309 Q60.0256 696.635 60.0256 691.988 Q60.0256 687.341 56.3653 684.668 Q52.6732 681.994 46.212 681.994 Q39.7508 681.994 36.0905 684.668 Q32.3984 687.341 32.3984 691.988 Q32.3984 696.635 36.0905 699.309 Q39.7508 701.95 46.212 701.95 Z" fill="#000000" fill-rule="nonzero" fill-opacity="1" /><path clip-path="url(#clip050)" d="M44.7161 633.583 L47.5806 633.583 L47.5806 660.51 Q53.6281 660.128 56.8109 656.881 Q59.9619 653.603 59.9619 647.778 Q59.9619 644.405 59.1344 641.253 Q58.3069 638.071 56.6518 634.951 L62.1899 634.951 Q63.5267 638.102 64.227 641.413 Q64.9272 644.723 64.9272 648.128 Q64.9272 656.658 59.9619 661.656 Q54.9967 666.621 46.5303 666.621 Q37.7774 666.621 32.6531 661.91 Q27.4968 657.168 27.4968 649.147 Q27.4968 641.954 32.1438 637.784 Q36.7589 633.583 44.7161 633.583 M42.9973 639.439 Q38.1912 639.503 35.3266 642.145 Q32.4621 644.755 32.4621 649.083 Q32.4621 653.985 35.2312 656.945 Q38.0002 659.873 43.0292 660.319 L42.9973 639.439 Z" fill="#000000" fill-rule="nonzero" fill-opacity="1" /><path clip-path="url(#clip050)" d="M28.3562 595.484 L45.7028 608.375 L64.0042 594.816 L64.0042 601.722 L49.9996 612.099 L64.0042 622.475 L64.0042 629.381 L45.3526 615.536 L28.3562 628.204 L28.3562 621.297 L41.0558 611.844 L28.3562 602.391 L28.3562 595.484 Z" fill="#000000" fill-rule="nonzero" fill-opacity="1" /><path clip-path="url(#clip050)" d="M871.174 43.6931 L871.174 65.8515 L884.299 65.8515 Q890.902 65.8515 894.062 63.1374 Q897.262 60.3828 897.262 54.752 Q897.262 49.0808 894.062 46.4072 Q890.902 43.6931 884.299 43.6931 L871.174 43.6931 M871.174 18.8205 L871.174 37.0496 L883.287 37.0496 Q889.282 37.0496 892.199 34.8216 Q895.156 32.5531 895.156 27.935 Q895.156 23.3575 892.199 21.089 Q889.282 18.8205 883.287 18.8205 L871.174 18.8205 M862.992 12.096 L883.894 12.096 Q893.252 12.096 898.315 15.9849 Q903.379 19.8737 903.379 27.0438 Q903.379 32.5936 900.787 35.8748 Q898.194 39.156 893.171 39.9662 Q899.207 41.2625 902.528 45.3944 Q905.891 49.4858 905.891 55.6432 Q905.891 63.745 900.381 68.1605 Q894.872 72.576 884.704 72.576 L862.992 72.576 L862.992 12.096 Z" fill="#000000" fill-rule="nonzero" fill-opacity="1" /><path clip-path="url(#clip050)" d="M940.202 49.7694 Q931.168 49.7694 927.685 51.8354 Q924.201 53.9013 924.201 58.8839 Q924.201 62.8538 926.793 65.2034 Q929.426 67.5124 933.923 67.5124 Q940.121 67.5124 943.848 63.1374 Q947.615 58.7219 947.615 51.4303 L947.615 49.7694 L940.202 49.7694 M955.069 46.6907 L955.069 72.576 L947.615 72.576 L947.615 65.6895 Q945.063 69.8214 941.255 71.8063 Q937.447 73.7508 931.938 73.7508 Q924.97 73.7508 920.839 69.8619 Q916.747 65.9325 916.747 59.3701 Q916.747 51.7138 921.851 47.825 Q926.996 43.9361 937.164 43.9361 L947.615 43.9361 L947.615 43.2069 Q947.615 38.0623 944.212 35.2672 Q940.85 32.4315 934.733 32.4315 Q930.844 32.4315 927.158 33.3632 Q923.472 34.295 920.069 36.1584 L920.069 29.2718 Q924.16 27.692 928.009 26.9223 Q931.857 26.1121 935.503 26.1121 Q945.346 26.1121 950.208 31.2163 Q955.069 36.3204 955.069 46.6907 Z" fill="#000000" fill-rule="nonzero" fill-opacity="1" /><path clip-path="url(#clip050)" d="M1008.14 45.1919 L1008.14 72.576 L1000.68 72.576 L1000.68 45.4349 Q1000.68 38.994 998.17 35.7938 Q995.659 32.5936 990.636 32.5936 Q984.6 32.5936 981.116 36.4419 Q977.632 40.2903 977.632 46.9338 L977.632 72.576 L970.138 72.576 L970.138 27.2059 L977.632 27.2059 L977.632 34.2544 Q980.306 30.163 983.911 28.1376 Q987.557 26.1121 992.296 26.1121 Q1000.11 26.1121 1004.13 30.9732 Q1008.14 35.7938 1008.14 45.1919 Z" fill="#000000" fill-rule="nonzero" fill-opacity="1" /><path clip-path="url(#clip050)" d="M1052.86 34.0924 L1052.86 9.54393 L1060.31 9.54393 L1060.31 72.576 L1052.86 72.576 L1052.86 65.7705 Q1050.51 69.8214 1046.9 71.8063 Q1043.34 73.7508 1038.31 73.7508 Q1030.09 73.7508 1024.91 67.1883 Q1019.76 60.6258 1019.76 49.9314 Q1019.76 39.2371 1024.91 32.6746 Q1030.09 26.1121 1038.31 26.1121 Q1043.34 26.1121 1046.9 28.0971 Q1050.51 30.0415 1052.86 34.0924 M1027.46 49.9314 Q1027.46 58.1548 1030.82 62.8538 Q1034.22 67.5124 1040.14 67.5124 Q1046.05 67.5124 1049.45 62.8538 Q1052.86 58.1548 1052.86 49.9314 Q1052.86 41.7081 1049.45 37.0496 Q1046.05 32.3505 1040.14 32.3505 Q1034.22 32.3505 1030.82 37.0496 Q1027.46 41.7081 1027.46 49.9314 Z" fill="#000000" fill-rule="nonzero" fill-opacity="1" /><path clip-path="url(#clip050)" d="M1104.59 28.5427 L1104.59 35.5912 Q1101.43 33.9709 1098.03 33.1607 Q1094.62 32.3505 1090.98 32.3505 Q1085.43 32.3505 1082.63 34.0519 Q1079.88 35.7533 1079.88 39.156 Q1079.88 41.7486 1081.86 43.2475 Q1083.85 44.7058 1089.84 46.0426 L1092.39 46.6097 Q1100.33 48.3111 1103.66 51.4303 Q1107.02 54.509 1107.02 60.0587 Q1107.02 66.3781 1101.99 70.0644 Q1097.01 73.7508 1088.26 73.7508 Q1084.62 73.7508 1080.65 73.0216 Q1076.72 72.3329 1072.34 70.9151 L1072.34 63.2184 Q1076.47 65.3654 1080.48 66.4591 Q1084.5 67.5124 1088.42 67.5124 Q1093.69 67.5124 1096.53 65.73 Q1099.36 63.9071 1099.36 60.6258 Q1099.36 57.5877 1097.3 55.9673 Q1095.27 54.3469 1088.34 52.8481 L1085.75 52.2405 Q1078.82 50.7821 1075.75 47.7845 Q1072.67 44.7463 1072.67 39.4801 Q1072.67 33.0797 1077.2 29.5959 Q1081.74 26.1121 1090.09 26.1121 Q1094.22 26.1121 1097.86 26.7198 Q1101.51 27.3274 1104.59 28.5427 Z" fill="#000000" fill-rule="nonzero" fill-opacity="1" /><path clip-path="url(#clip050)" d="M1152.63 14.324 L1152.63 27.2059 L1167.98 27.2059 L1167.98 32.9987 L1152.63 32.9987 L1152.63 57.6282 Q1152.63 63.1779 1154.13 64.7578 Q1155.67 66.3376 1160.33 66.3376 L1167.98 66.3376 L1167.98 72.576 L1160.33 72.576 Q1151.7 72.576 1148.42 69.3758 Q1145.14 66.1351 1145.14 57.6282 L1145.14 32.9987 L1139.67 32.9987 L1139.67 27.2059 L1145.14 27.2059 L1145.14 14.324 L1152.63 14.324 Z" fill="#000000" fill-rule="nonzero" fill-opacity="1" /><path clip-path="url(#clip050)" d="M1195.37 32.4315 Q1189.37 32.4315 1185.89 37.1306 Q1182.41 41.7891 1182.41 49.9314 Q1182.41 58.0738 1185.85 62.7728 Q1189.33 67.4314 1195.37 67.4314 Q1201.32 67.4314 1204.81 62.7323 Q1208.29 58.0333 1208.29 49.9314 Q1208.29 41.8701 1204.81 37.1711 Q1201.32 32.4315 1195.37 32.4315 M1195.37 26.1121 Q1205.09 26.1121 1210.64 32.4315 Q1216.19 38.7509 1216.19 49.9314 Q1216.19 61.0714 1210.64 67.4314 Q1205.09 73.7508 1195.37 73.7508 Q1185.61 73.7508 1180.06 67.4314 Q1174.55 61.0714 1174.55 49.9314 Q1174.55 38.7509 1180.06 32.4315 Q1185.61 26.1121 1195.37 26.1121 Z" fill="#000000" fill-rule="nonzero" fill-opacity="1" /><path clip-path="url(#clip050)" d="M1283.92 44.2197 Q1286.55 45.1109 1289.03 48.0275 Q1291.54 50.9442 1294.05 56.0483 L1302.35 72.576 L1293.56 72.576 L1285.82 57.061 Q1282.83 50.9847 1279.99 48.9997 Q1277.2 47.0148 1272.34 47.0148 L1263.42 47.0148 L1263.42 72.576 L1255.24 72.576 L1255.24 12.096 L1273.71 12.096 Q1284.08 12.096 1289.19 16.4305 Q1294.29 20.7649 1294.29 29.5149 Q1294.29 35.2267 1291.62 38.994 Q1288.98 42.7613 1283.92 44.2197 M1263.42 18.8205 L1263.42 40.2903 L1273.71 40.2903 Q1279.63 40.2903 1282.62 37.5762 Q1285.66 34.8216 1285.66 29.5149 Q1285.66 24.2082 1282.62 21.5346 Q1279.63 18.8205 1273.71 18.8205 L1263.42 18.8205 Z" fill="#000000" fill-rule="nonzero" fill-opacity="1" /><path clip-path="url(#clip050)" d="M1331.36 49.7694 Q1322.32 49.7694 1318.84 51.8354 Q1315.36 53.9013 1315.36 58.8839 Q1315.36 62.8538 1317.95 65.2034 Q1320.58 67.5124 1325.08 67.5124 Q1331.28 67.5124 1335 63.1374 Q1338.77 58.7219 1338.77 51.4303 L1338.77 49.7694 L1331.36 49.7694 M1346.22 46.6907 L1346.22 72.576 L1338.77 72.576 L1338.77 65.6895 Q1336.22 69.8214 1332.41 71.8063 Q1328.6 73.7508 1323.09 73.7508 Q1316.13 73.7508 1311.99 69.8619 Q1307.9 65.9325 1307.9 59.3701 Q1307.9 51.7138 1313.01 47.825 Q1318.15 43.9361 1328.32 43.9361 L1338.77 43.9361 L1338.77 43.2069 Q1338.77 38.0623 1335.37 35.2672 Q1332.01 32.4315 1325.89 32.4315 Q1322 32.4315 1318.31 33.3632 Q1314.63 34.295 1311.22 36.1584 L1311.22 29.2718 Q1315.32 27.692 1319.16 26.9223 Q1323.01 26.1121 1326.66 26.1121 Q1336.5 26.1121 1341.36 31.2163 Q1346.22 36.3204 1346.22 46.6907 Z" fill="#000000" fill-rule="nonzero" fill-opacity="1" /><path clip-path="url(#clip050)" d="M1399.29 45.1919 L1399.29 72.576 L1391.84 72.576 L1391.84 45.4349 Q1391.84 38.994 1389.33 35.7938 Q1386.81 32.5936 1381.79 32.5936 Q1375.76 32.5936 1372.27 36.4419 Q1368.79 40.2903 1368.79 46.9338 L1368.79 72.576 L1361.29 72.576 L1361.29 27.2059 L1368.79 27.2059 L1368.79 34.2544 Q1371.46 30.163 1375.07 28.1376 Q1378.71 26.1121 1383.45 26.1121 Q1391.27 26.1121 1395.28 30.9732 Q1399.29 35.7938 1399.29 45.1919 Z" fill="#000000" fill-rule="nonzero" fill-opacity="1" /><path clip-path="url(#clip050)" d="M1444.01 34.0924 L1444.01 9.54393 L1451.47 9.54393 L1451.47 72.576 L1444.01 72.576 L1444.01 65.7705 Q1441.66 69.8214 1438.06 71.8063 Q1434.49 73.7508 1429.47 73.7508 Q1421.25 73.7508 1416.06 67.1883 Q1410.92 60.6258 1410.92 49.9314 Q1410.92 39.2371 1416.06 32.6746 Q1421.25 26.1121 1429.47 26.1121 Q1434.49 26.1121 1438.06 28.0971 Q1441.66 30.0415 1444.01 34.0924 M1418.61 49.9314 Q1418.61 58.1548 1421.98 62.8538 Q1425.38 67.5124 1431.29 67.5124 Q1437.21 67.5124 1440.61 62.8538 Q1444.01 58.1548 1444.01 49.9314 Q1444.01 41.7081 1440.61 37.0496 Q1437.21 32.3505 1431.29 32.3505 Q1425.38 32.3505 1421.98 37.0496 Q1418.61 41.7081 1418.61 49.9314 Z" fill="#000000" fill-rule="nonzero" fill-opacity="1" /><path clip-path="url(#clip050)" d="M1493.19 27.2059 L1500.64 27.2059 L1500.64 72.576 L1493.19 72.576 L1493.19 27.2059 M1493.19 9.54393 L1500.64 9.54393 L1500.64 18.9825 L1493.19 18.9825 L1493.19 9.54393 Z" fill="#000000" fill-rule="nonzero" fill-opacity="1" /><path clip-path="url(#clip050)" d="M1553.95 45.1919 L1553.95 72.576 L1546.5 72.576 L1546.5 45.4349 Q1546.5 38.994 1543.99 35.7938 Q1541.48 32.5936 1536.45 32.5936 Q1530.42 32.5936 1526.93 36.4419 Q1523.45 40.2903 1523.45 46.9338 L1523.45 72.576 L1515.96 72.576 L1515.96 27.2059 L1523.45 27.2059 L1523.45 34.2544 Q1526.12 30.163 1529.73 28.1376 Q1533.38 26.1121 1538.12 26.1121 Q1545.93 26.1121 1549.94 30.9732 Q1553.95 35.7938 1553.95 45.1919 Z" fill="#000000" fill-rule="nonzero" fill-opacity="1" /><path clip-path="url(#clip050)" d="M1598.68 34.0924 L1598.68 9.54393 L1606.13 9.54393 L1606.13 72.576 L1598.68 72.576 L1598.68 65.7705 Q1596.33 69.8214 1592.72 71.8063 Q1589.16 73.7508 1584.13 73.7508 Q1575.91 73.7508 1570.73 67.1883 Q1565.58 60.6258 1565.58 49.9314 Q1565.58 39.2371 1570.73 32.6746 Q1575.91 26.1121 1584.13 26.1121 Q1589.16 26.1121 1592.72 28.0971 Q1596.33 30.0415 1598.68 34.0924 M1573.28 49.9314 Q1573.28 58.1548 1576.64 62.8538 Q1580.04 67.5124 1585.96 67.5124 Q1591.87 67.5124 1595.27 62.8538 Q1598.68 58.1548 1598.68 49.9314 Q1598.68 41.7081 1595.27 37.0496 Q1591.87 32.3505 1585.96 32.3505 Q1580.04 32.3505 1576.64 37.0496 Q1573.28 41.7081 1573.28 49.9314 Z" fill="#000000" fill-rule="nonzero" fill-opacity="1" /><path clip-path="url(#clip050)" d="M1660.29 48.0275 L1660.29 51.6733 L1626.02 51.6733 Q1626.51 59.3701 1630.64 63.421 Q1634.81 67.4314 1642.22 67.4314 Q1646.52 67.4314 1650.53 66.3781 Q1654.58 65.3249 1658.55 63.2184 L1658.55 70.267 Q1654.54 71.9684 1650.33 72.8596 Q1646.11 73.7508 1641.78 73.7508 Q1630.92 73.7508 1624.56 67.4314 Q1618.24 61.1119 1618.24 50.3365 Q1618.24 39.1965 1624.24 32.6746 Q1630.27 26.1121 1640.48 26.1121 Q1649.64 26.1121 1654.94 32.0264 Q1660.29 37.9003 1660.29 48.0275 M1652.84 45.84 Q1652.76 39.7232 1649.39 36.0774 Q1646.07 32.4315 1640.56 32.4315 Q1634.32 32.4315 1630.56 35.9558 Q1626.83 39.4801 1626.26 45.8805 L1652.84 45.84 Z" fill="#000000" fill-rule="nonzero" fill-opacity="1" /><path clip-path="url(#clip050)" d="M1708.78 27.2059 L1692.37 49.2833 L1709.63 72.576 L1700.84 72.576 L1687.63 54.752 L1674.43 72.576 L1665.64 72.576 L1683.26 48.8377 L1667.14 27.2059 L1675.93 27.2059 L1687.96 43.369 L1699.99 27.2059 L1708.78 27.2059 Z" fill="#000000" fill-rule="nonzero" fill-opacity="1" /><circle clip-path="url(#clip052)" cx="280.231" cy="682.769" r="14.4" fill="#009af9" fill-rule="evenodd" fill-opacity="1" stroke="#000000" stroke-opacity="1" stroke-width="3.2"/>
<circle clip-path="url(#clip052)" cx="349.616" cy="597.817" r="14.4" fill="#009af9" fill-rule="evenodd" fill-opacity="1" stroke="#000000" stroke-opacity="1" stroke-width="3.2"/>
<circle clip-path="url(#clip052)" cx="419.001" cy="372.497" r="14.4" fill="#009af9" fill-rule="evenodd" fill-opacity="1" stroke="#000000" stroke-opacity="1" stroke-width="3.2"/>
<circle clip-path="url(#clip052)" cx="488.386" cy="260.484" r="14.4" fill="#009af9" fill-rule="evenodd" fill-opacity="1" stroke="#000000" stroke-opacity="1" stroke-width="3.2"/>
<circle clip-path="url(#clip052)" cx="557.77" cy="366.865" r="14.4" fill="#009af9" fill-rule="evenodd" fill-opacity="1" stroke="#000000" stroke-opacity="1" stroke-width="3.2"/>
<circle clip-path="url(#clip052)" cx="627.155" cy="314.474" r="14.4" fill="#009af9" fill-rule="evenodd" fill-opacity="1" stroke="#000000" stroke-opacity="1" stroke-width="3.2"/>
<circle clip-path="url(#clip052)" cx="696.54" cy="330.89" r="14.4" fill="#009af9" fill-rule="evenodd" fill-opacity="1" stroke="#000000" stroke-opacity="1" stroke-width="3.2"/>
<circle clip-path="url(#clip052)" cx="765.925" cy="212.39" r="14.4" fill="#009af9" fill-rule="evenodd" fill-opacity="1" stroke="#000000" stroke-opacity="1" stroke-width="3.2"/>
<circle clip-path="url(#clip052)" cx="835.31" cy="365.285" r="14.4" fill="#009af9" fill-rule="evenodd" fill-opacity="1" stroke="#000000" stroke-opacity="1" stroke-width="3.2"/>
<circle clip-path="url(#clip052)" cx="904.695" cy="364.743" r="14.4" fill="#009af9" fill-rule="evenodd" fill-opacity="1" stroke="#000000" stroke-opacity="1" stroke-width="3.2"/>
<circle clip-path="url(#clip052)" cx="974.079" cy="329.883" r="14.4" fill="#009af9" fill-rule="evenodd" fill-opacity="1" stroke="#000000" stroke-opacity="1" stroke-width="3.2"/>
<circle clip-path="url(#clip052)" cx="1043.46" cy="362.543" r="14.4" fill="#009af9" fill-rule="evenodd" fill-opacity="1" stroke="#000000" stroke-opacity="1" stroke-width="3.2"/>
<circle clip-path="url(#clip052)" cx="1112.85" cy="371.086" r="14.4" fill="#009af9" fill-rule="evenodd" fill-opacity="1" stroke="#000000" stroke-opacity="1" stroke-width="3.2"/>
<circle clip-path="url(#clip052)" cx="1182.23" cy="371.813" r="14.4" fill="#009af9" fill-rule="evenodd" fill-opacity="1" stroke="#000000" stroke-opacity="1" stroke-width="3.2"/>
<circle clip-path="url(#clip052)" cx="1251.62" cy="369.821" r="14.4" fill="#009af9" fill-rule="evenodd" fill-opacity="1" stroke="#000000" stroke-opacity="1" stroke-width="3.2"/>
<circle clip-path="url(#clip052)" cx="1321" cy="370.984" r="14.4" fill="#009af9" fill-rule="evenodd" fill-opacity="1" stroke="#000000" stroke-opacity="1" stroke-width="3.2"/>
<circle clip-path="url(#clip052)" cx="1390.39" cy="372.542" r="14.4" fill="#009af9" fill-rule="evenodd" fill-opacity="1" stroke="#000000" stroke-opacity="1" stroke-width="3.2"/>
<circle clip-path="url(#clip052)" cx="1459.77" cy="373.904" r="14.4" fill="#009af9" fill-rule="evenodd" fill-opacity="1" stroke="#000000" stroke-opacity="1" stroke-width="3.2"/>
<circle clip-path="url(#clip052)" cx="1529.16" cy="373.904" r="14.4" fill="#009af9" fill-rule="evenodd" fill-opacity="1" stroke="#000000" stroke-opacity="1" stroke-width="3.2"/>
<circle clip-path="url(#clip052)" cx="1598.54" cy="368.914" r="14.4" fill="#009af9" fill-rule="evenodd" fill-opacity="1" stroke="#000000" stroke-opacity="1" stroke-width="3.2"/>
<circle clip-path="url(#clip052)" cx="1667.93" cy="370.728" r="14.4" fill="#009af9" fill-rule="evenodd" fill-opacity="1" stroke="#000000" stroke-opacity="1" stroke-width="3.2"/>
<circle clip-path="url(#clip052)" cx="1737.31" cy="373.904" r="14.4" fill="#009af9" fill-rule="evenodd" fill-opacity="1" stroke="#000000" stroke-opacity="1" stroke-width="3.2"/>
<circle clip-path="url(#clip052)" cx="1806.7" cy="372.542" r="14.4" fill="#009af9" fill-rule="evenodd" fill-opacity="1" stroke="#000000" stroke-opacity="1" stroke-width="3.2"/>
<circle clip-path="url(#clip052)" cx="1876.08" cy="373.904" r="14.4" fill="#009af9" fill-rule="evenodd" fill-opacity="1" stroke="#000000" stroke-opacity="1" stroke-width="3.2"/>
<circle clip-path="url(#clip052)" cx="1945.47" cy="373.904" r="14.4" fill="#009af9" fill-rule="evenodd" fill-opacity="1" stroke="#000000" stroke-opacity="1" stroke-width="3.2"/>
<circle clip-path="url(#clip052)" cx="2014.85" cy="373.45" r="14.4" fill="#009af9" fill-rule="evenodd" fill-opacity="1" stroke="#000000" stroke-opacity="1" stroke-width="3.2"/>
<circle clip-path="url(#clip052)" cx="2084.24" cy="373.904" r="14.4" fill="#009af9" fill-rule="evenodd" fill-opacity="1" stroke="#000000" stroke-opacity="1" stroke-width="3.2"/>
<circle clip-path="url(#clip052)" cx="2153.62" cy="373.904" r="14.4" fill="#009af9" fill-rule="evenodd" fill-opacity="1" stroke="#000000" stroke-opacity="1" stroke-width="3.2"/>
<circle clip-path="url(#clip052)" cx="2223.01" cy="373.539" r="14.4" fill="#009af9" fill-rule="evenodd" fill-opacity="1" stroke="#000000" stroke-opacity="1" stroke-width="3.2"/>
<circle clip-path="url(#clip052)" cx="2292.39" cy="373.904" r="14.4" fill="#009af9" fill-rule="evenodd" fill-opacity="1" stroke="#000000" stroke-opacity="1" stroke-width="3.2"/>
<circle clip-path="url(#clip052)" cx="280.231" cy="662.867" r="14.4" fill="#009af9" fill-rule="evenodd" fill-opacity="1" stroke="#000000" stroke-opacity="1" stroke-width="3.2"/>
<circle clip-path="url(#clip052)" cx="349.616" cy="574.961" r="14.4" fill="#009af9" fill-rule="evenodd" fill-opacity="1" stroke="#000000" stroke-opacity="1" stroke-width="3.2"/>
<circle clip-path="url(#clip052)" cx="419.001" cy="181.181" r="14.4" fill="#009af9" fill-rule="evenodd" fill-opacity="1" stroke="#000000" stroke-opacity="1" stroke-width="3.2"/>
<circle clip-path="url(#clip052)" cx="488.386" cy="333.613" r="14.4" fill="#009af9" fill-rule="evenodd" fill-opacity="1" stroke="#000000" stroke-opacity="1" stroke-width="3.2"/>
<circle clip-path="url(#clip052)" cx="557.77" cy="366.008" r="14.4" fill="#009af9" fill-rule="evenodd" fill-opacity="1" stroke="#000000" stroke-opacity="1" stroke-width="3.2"/>
<circle clip-path="url(#clip052)" cx="627.155" cy="365.612" r="14.4" fill="#009af9" fill-rule="evenodd" fill-opacity="1" stroke="#000000" stroke-opacity="1" stroke-width="3.2"/>
<circle clip-path="url(#clip052)" cx="696.54" cy="193.972" r="14.4" fill="#009af9" fill-rule="evenodd" fill-opacity="1" stroke="#000000" stroke-opacity="1" stroke-width="3.2"/>
<circle clip-path="url(#clip052)" cx="765.925" cy="366.986" r="14.4" fill="#009af9" fill-rule="evenodd" fill-opacity="1" stroke="#000000" stroke-opacity="1" stroke-width="3.2"/>
<circle clip-path="url(#clip052)" cx="835.31" cy="352.261" r="14.4" fill="#009af9" fill-rule="evenodd" fill-opacity="1" stroke="#000000" stroke-opacity="1" stroke-width="3.2"/>
<circle clip-path="url(#clip052)" cx="904.695" cy="366.829" r="14.4" fill="#009af9" fill-rule="evenodd" fill-opacity="1" stroke="#000000" stroke-opacity="1" stroke-width="3.2"/>
<circle clip-path="url(#clip052)" cx="974.079" cy="364.921" r="14.4" fill="#009af9" fill-rule="evenodd" fill-opacity="1" stroke="#000000" stroke-opacity="1" stroke-width="3.2"/>
<circle clip-path="url(#clip052)" cx="1043.46" cy="373.539" r="14.4" fill="#009af9" fill-rule="evenodd" fill-opacity="1" stroke="#000000" stroke-opacity="1" stroke-width="3.2"/>
<circle clip-path="url(#clip052)" cx="1112.85" cy="365.252" r="14.4" fill="#009af9" fill-rule="evenodd" fill-opacity="1" stroke="#000000" stroke-opacity="1" stroke-width="3.2"/>
<circle clip-path="url(#clip052)" cx="1182.23" cy="365.108" r="14.4" fill="#009af9" fill-rule="evenodd" fill-opacity="1" stroke="#000000" stroke-opacity="1" stroke-width="3.2"/>
<circle clip-path="url(#clip052)" cx="1251.62" cy="374.261" r="14.4" fill="#009af9" fill-rule="evenodd" fill-opacity="1" stroke="#000000" stroke-opacity="1" stroke-width="3.2"/>
<circle clip-path="url(#clip052)" cx="1321" cy="373.175" r="14.4" fill="#009af9" fill-rule="evenodd" fill-opacity="1" stroke="#000000" stroke-opacity="1" stroke-width="3.2"/>
<circle clip-path="url(#clip052)" cx="1390.39" cy="367.103" r="14.4" fill="#009af9" fill-rule="evenodd" fill-opacity="1" stroke="#000000" stroke-opacity="1" stroke-width="3.2"/>
<circle clip-path="url(#clip052)" cx="1459.77" cy="373.904" r="14.4" fill="#009af9" fill-rule="evenodd" fill-opacity="1" stroke="#000000" stroke-opacity="1" stroke-width="3.2"/>
<circle clip-path="url(#clip052)" cx="1529.16" cy="373.539" r="14.4" fill="#009af9" fill-rule="evenodd" fill-opacity="1" stroke="#000000" stroke-opacity="1" stroke-width="3.2"/>
<circle clip-path="url(#clip052)" cx="1598.54" cy="372.721" r="14.4" fill="#009af9" fill-rule="evenodd" fill-opacity="1" stroke="#000000" stroke-opacity="1" stroke-width="3.2"/>
<circle clip-path="url(#clip052)" cx="1667.93" cy="368.915" r="14.4" fill="#009af9" fill-rule="evenodd" fill-opacity="1" stroke="#000000" stroke-opacity="1" stroke-width="3.2"/>
<circle clip-path="url(#clip052)" cx="1737.31" cy="373.904" r="14.4" fill="#009af9" fill-rule="evenodd" fill-opacity="1" stroke="#000000" stroke-opacity="1" stroke-width="3.2"/>
<circle clip-path="url(#clip052)" cx="1806.7" cy="373.539" r="14.4" fill="#009af9" fill-rule="evenodd" fill-opacity="1" stroke="#000000" stroke-opacity="1" stroke-width="3.2"/>
<circle clip-path="url(#clip052)" cx="1876.08" cy="373.904" r="14.4" fill="#009af9" fill-rule="evenodd" fill-opacity="1" stroke="#000000" stroke-opacity="1" stroke-width="3.2"/>
<circle clip-path="url(#clip052)" cx="1945.47" cy="373.904" r="14.4" fill="#009af9" fill-rule="evenodd" fill-opacity="1" stroke="#000000" stroke-opacity="1" stroke-width="3.2"/>
<circle clip-path="url(#clip052)" cx="2014.85" cy="373.904" r="14.4" fill="#009af9" fill-rule="evenodd" fill-opacity="1" stroke="#000000" stroke-opacity="1" stroke-width="3.2"/>
<circle clip-path="url(#clip052)" cx="2084.24" cy="372.178" r="14.4" fill="#009af9" fill-rule="evenodd" fill-opacity="1" stroke="#000000" stroke-opacity="1" stroke-width="3.2"/>
<circle clip-path="url(#clip052)" cx="2153.62" cy="373.904" r="14.4" fill="#009af9" fill-rule="evenodd" fill-opacity="1" stroke="#000000" stroke-opacity="1" stroke-width="3.2"/>
<circle clip-path="url(#clip052)" cx="2223.01" cy="373.451" r="14.4" fill="#009af9" fill-rule="evenodd" fill-opacity="1" stroke="#000000" stroke-opacity="1" stroke-width="3.2"/>
<circle clip-path="url(#clip052)" cx="2292.39" cy="370.275" r="14.4" fill="#009af9" fill-rule="evenodd" fill-opacity="1" stroke="#000000" stroke-opacity="1" stroke-width="3.2"/>
<circle clip-path="url(#clip052)" cx="280.231" cy="685.22" r="14.4" fill="#009af9" fill-rule="evenodd" fill-opacity="1" stroke="#000000" stroke-opacity="1" stroke-width="3.2"/>
<circle clip-path="url(#clip052)" cx="349.616" cy="685.008" r="14.4" fill="#009af9" fill-rule="evenodd" fill-opacity="1" stroke="#000000" stroke-opacity="1" stroke-width="3.2"/>
<circle clip-path="url(#clip052)" cx="419.001" cy="667.77" r="14.4" fill="#009af9" fill-rule="evenodd" fill-opacity="1" stroke="#000000" stroke-opacity="1" stroke-width="3.2"/>
<circle clip-path="url(#clip052)" cx="488.386" cy="326.709" r="14.4" fill="#009af9" fill-rule="evenodd" fill-opacity="1" stroke="#000000" stroke-opacity="1" stroke-width="3.2"/>
<circle clip-path="url(#clip052)" cx="557.77" cy="174.377" r="14.4" fill="#009af9" fill-rule="evenodd" fill-opacity="1" stroke="#000000" stroke-opacity="1" stroke-width="3.2"/>
<circle clip-path="url(#clip052)" cx="627.155" cy="361.659" r="14.4" fill="#009af9" fill-rule="evenodd" fill-opacity="1" stroke="#000000" stroke-opacity="1" stroke-width="3.2"/>
<circle clip-path="url(#clip052)" cx="696.54" cy="298.181" r="14.4" fill="#009af9" fill-rule="evenodd" fill-opacity="1" stroke="#000000" stroke-opacity="1" stroke-width="3.2"/>
<circle clip-path="url(#clip052)" cx="765.925" cy="285.579" r="14.4" fill="#009af9" fill-rule="evenodd" fill-opacity="1" stroke="#000000" stroke-opacity="1" stroke-width="3.2"/>
<circle clip-path="url(#clip052)" cx="835.31" cy="366.274" r="14.4" fill="#009af9" fill-rule="evenodd" fill-opacity="1" stroke="#000000" stroke-opacity="1" stroke-width="3.2"/>
<circle clip-path="url(#clip052)" cx="904.695" cy="368.818" r="14.4" fill="#009af9" fill-rule="evenodd" fill-opacity="1" stroke="#000000" stroke-opacity="1" stroke-width="3.2"/>
<circle clip-path="url(#clip052)" cx="974.079" cy="362.972" r="14.4" fill="#009af9" fill-rule="evenodd" fill-opacity="1" stroke="#000000" stroke-opacity="1" stroke-width="3.2"/>
<circle clip-path="url(#clip052)" cx="1043.46" cy="355.454" r="14.4" fill="#009af9" fill-rule="evenodd" fill-opacity="1" stroke="#000000" stroke-opacity="1" stroke-width="3.2"/>
<circle clip-path="url(#clip052)" cx="1112.85" cy="369.368" r="14.4" fill="#009af9" fill-rule="evenodd" fill-opacity="1" stroke="#000000" stroke-opacity="1" stroke-width="3.2"/>
<circle clip-path="url(#clip052)" cx="1182.23" cy="369.547" r="14.4" fill="#009af9" fill-rule="evenodd" fill-opacity="1" stroke="#000000" stroke-opacity="1" stroke-width="3.2"/>
<circle clip-path="url(#clip052)" cx="1251.62" cy="370.721" r="14.4" fill="#009af9" fill-rule="evenodd" fill-opacity="1" stroke="#000000" stroke-opacity="1" stroke-width="3.2"/>
<circle clip-path="url(#clip052)" cx="1321" cy="328.384" r="14.4" fill="#009af9" fill-rule="evenodd" fill-opacity="1" stroke="#000000" stroke-opacity="1" stroke-width="3.2"/>
<circle clip-path="url(#clip052)" cx="1390.39" cy="373.904" r="14.4" fill="#009af9" fill-rule="evenodd" fill-opacity="1" stroke="#000000" stroke-opacity="1" stroke-width="3.2"/>
<circle clip-path="url(#clip052)" cx="1459.77" cy="372.178" r="14.4" fill="#009af9" fill-rule="evenodd" fill-opacity="1" stroke="#000000" stroke-opacity="1" stroke-width="3.2"/>
<circle clip-path="url(#clip052)" cx="1529.16" cy="371.724" r="14.4" fill="#009af9" fill-rule="evenodd" fill-opacity="1" stroke="#000000" stroke-opacity="1" stroke-width="3.2"/>
<circle clip-path="url(#clip052)" cx="1598.54" cy="373.539" r="14.4" fill="#009af9" fill-rule="evenodd" fill-opacity="1" stroke="#000000" stroke-opacity="1" stroke-width="3.2"/>
<circle clip-path="url(#clip052)" cx="1667.93" cy="370.274" r="14.4" fill="#009af9" fill-rule="evenodd" fill-opacity="1" stroke="#000000" stroke-opacity="1" stroke-width="3.2"/>
<circle clip-path="url(#clip052)" cx="1737.31" cy="373.904" r="14.4" fill="#009af9" fill-rule="evenodd" fill-opacity="1" stroke="#000000" stroke-opacity="1" stroke-width="3.2"/>
<circle clip-path="url(#clip052)" cx="1806.7" cy="373.904" r="14.4" fill="#009af9" fill-rule="evenodd" fill-opacity="1" stroke="#000000" stroke-opacity="1" stroke-width="3.2"/>
<circle clip-path="url(#clip052)" cx="1876.08" cy="370.729" r="14.4" fill="#009af9" fill-rule="evenodd" fill-opacity="1" stroke="#000000" stroke-opacity="1" stroke-width="3.2"/>
<circle clip-path="url(#clip052)" cx="1945.47" cy="373.539" r="14.4" fill="#009af9" fill-rule="evenodd" fill-opacity="1" stroke="#000000" stroke-opacity="1" stroke-width="3.2"/>
<circle clip-path="url(#clip052)" cx="2014.85" cy="373.904" r="14.4" fill="#009af9" fill-rule="evenodd" fill-opacity="1" stroke="#000000" stroke-opacity="1" stroke-width="3.2"/>
<circle clip-path="url(#clip052)" cx="2084.24" cy="373.904" r="14.4" fill="#009af9" fill-rule="evenodd" fill-opacity="1" stroke="#000000" stroke-opacity="1" stroke-width="3.2"/>
<circle clip-path="url(#clip052)" cx="2153.62" cy="373.904" r="14.4" fill="#009af9" fill-rule="evenodd" fill-opacity="1" stroke="#000000" stroke-opacity="1" stroke-width="3.2"/>
<circle clip-path="url(#clip052)" cx="2223.01" cy="373.904" r="14.4" fill="#009af9" fill-rule="evenodd" fill-opacity="1" stroke="#000000" stroke-opacity="1" stroke-width="3.2"/>
<circle clip-path="url(#clip052)" cx="2292.39" cy="372.542" r="14.4" fill="#009af9" fill-rule="evenodd" fill-opacity="1" stroke="#000000" stroke-opacity="1" stroke-width="3.2"/>
<circle clip-path="url(#clip052)" cx="280.231" cy="682.672" r="14.4" fill="#009af9" fill-rule="evenodd" fill-opacity="1" stroke="#000000" stroke-opacity="1" stroke-width="3.2"/>
<circle clip-path="url(#clip052)" cx="349.616" cy="571.622" r="14.4" fill="#009af9" fill-rule="evenodd" fill-opacity="1" stroke="#000000" stroke-opacity="1" stroke-width="3.2"/>
<circle clip-path="url(#clip052)" cx="419.001" cy="333.73" r="14.4" fill="#009af9" fill-rule="evenodd" fill-opacity="1" stroke="#000000" stroke-opacity="1" stroke-width="3.2"/>
<circle clip-path="url(#clip052)" cx="488.386" cy="370.697" r="14.4" fill="#009af9" fill-rule="evenodd" fill-opacity="1" stroke="#000000" stroke-opacity="1" stroke-width="3.2"/>
<circle clip-path="url(#clip052)" cx="557.77" cy="370.264" r="14.4" fill="#009af9" fill-rule="evenodd" fill-opacity="1" stroke="#000000" stroke-opacity="1" stroke-width="3.2"/>
<circle clip-path="url(#clip052)" cx="627.155" cy="188.165" r="14.4" fill="#009af9" fill-rule="evenodd" fill-opacity="1" stroke="#000000" stroke-opacity="1" stroke-width="3.2"/>
<circle clip-path="url(#clip052)" cx="696.54" cy="368.763" r="14.4" fill="#009af9" fill-rule="evenodd" fill-opacity="1" stroke="#000000" stroke-opacity="1" stroke-width="3.2"/>
<circle clip-path="url(#clip052)" cx="765.925" cy="324.12" r="14.4" fill="#009af9" fill-rule="evenodd" fill-opacity="1" stroke="#000000" stroke-opacity="1" stroke-width="3.2"/>
<circle clip-path="url(#clip052)" cx="835.31" cy="322.904" r="14.4" fill="#009af9" fill-rule="evenodd" fill-opacity="1" stroke="#000000" stroke-opacity="1" stroke-width="3.2"/>
<circle clip-path="url(#clip052)" cx="904.695" cy="368.635" r="14.4" fill="#009af9" fill-rule="evenodd" fill-opacity="1" stroke="#000000" stroke-opacity="1" stroke-width="3.2"/>
<circle clip-path="url(#clip052)" cx="974.079" cy="370.346" r="14.4" fill="#009af9" fill-rule="evenodd" fill-opacity="1" stroke="#000000" stroke-opacity="1" stroke-width="3.2"/>
<circle clip-path="url(#clip052)" cx="1043.46" cy="365.643" r="14.4" fill="#009af9" fill-rule="evenodd" fill-opacity="1" stroke="#000000" stroke-opacity="1" stroke-width="3.2"/>
<circle clip-path="url(#clip052)" cx="1112.85" cy="298.818" r="14.4" fill="#009af9" fill-rule="evenodd" fill-opacity="1" stroke="#000000" stroke-opacity="1" stroke-width="3.2"/>
<circle clip-path="url(#clip052)" cx="1182.23" cy="369.003" r="14.4" fill="#009af9" fill-rule="evenodd" fill-opacity="1" stroke="#000000" stroke-opacity="1" stroke-width="3.2"/>
<circle clip-path="url(#clip052)" cx="1251.62" cy="373.539" r="14.4" fill="#009af9" fill-rule="evenodd" fill-opacity="1" stroke="#000000" stroke-opacity="1" stroke-width="3.2"/>
<circle clip-path="url(#clip052)" cx="1321" cy="364.929" r="14.4" fill="#009af9" fill-rule="evenodd" fill-opacity="1" stroke="#000000" stroke-opacity="1" stroke-width="3.2"/>
<circle clip-path="url(#clip052)" cx="1390.39" cy="373.539" r="14.4" fill="#009af9" fill-rule="evenodd" fill-opacity="1" stroke="#000000" stroke-opacity="1" stroke-width="3.2"/>
<circle clip-path="url(#clip052)" cx="1459.77" cy="364.025" r="14.4" fill="#009af9" fill-rule="evenodd" fill-opacity="1" stroke="#000000" stroke-opacity="1" stroke-width="3.2"/>
<circle clip-path="url(#clip052)" cx="1529.16" cy="372.542" r="14.4" fill="#009af9" fill-rule="evenodd" fill-opacity="1" stroke="#000000" stroke-opacity="1" stroke-width="3.2"/>
<circle clip-path="url(#clip052)" cx="1598.54" cy="373.175" r="14.4" fill="#009af9" fill-rule="evenodd" fill-opacity="1" stroke="#000000" stroke-opacity="1" stroke-width="3.2"/>
<circle clip-path="url(#clip052)" cx="1667.93" cy="369.002" r="14.4" fill="#009af9" fill-rule="evenodd" fill-opacity="1" stroke="#000000" stroke-opacity="1" stroke-width="3.2"/>
<circle clip-path="url(#clip052)" cx="1737.31" cy="372.088" r="14.4" fill="#009af9" fill-rule="evenodd" fill-opacity="1" stroke="#000000" stroke-opacity="1" stroke-width="3.2"/>
<circle clip-path="url(#clip052)" cx="1806.7" cy="370.984" r="14.4" fill="#009af9" fill-rule="evenodd" fill-opacity="1" stroke="#000000" stroke-opacity="1" stroke-width="3.2"/>
<circle clip-path="url(#clip052)" cx="1876.08" cy="373.904" r="14.4" fill="#009af9" fill-rule="evenodd" fill-opacity="1" stroke="#000000" stroke-opacity="1" stroke-width="3.2"/>
<circle clip-path="url(#clip052)" cx="1945.47" cy="370.729" r="14.4" fill="#009af9" fill-rule="evenodd" fill-opacity="1" stroke="#000000" stroke-opacity="1" stroke-width="3.2"/>
<circle clip-path="url(#clip052)" cx="2014.85" cy="373.904" r="14.4" fill="#009af9" fill-rule="evenodd" fill-opacity="1" stroke="#000000" stroke-opacity="1" stroke-width="3.2"/>
<circle clip-path="url(#clip052)" cx="2084.24" cy="373.904" r="14.4" fill="#009af9" fill-rule="evenodd" fill-opacity="1" stroke="#000000" stroke-opacity="1" stroke-width="3.2"/>
<circle clip-path="url(#clip052)" cx="2153.62" cy="373.904" r="14.4" fill="#009af9" fill-rule="evenodd" fill-opacity="1" stroke="#000000" stroke-opacity="1" stroke-width="3.2"/>
<circle clip-path="url(#clip052)" cx="2223.01" cy="373.904" r="14.4" fill="#009af9" fill-rule="evenodd" fill-opacity="1" stroke="#000000" stroke-opacity="1" stroke-width="3.2"/>
<circle clip-path="url(#clip052)" cx="2292.39" cy="373.904" r="14.4" fill="#009af9" fill-rule="evenodd" fill-opacity="1" stroke="#000000" stroke-opacity="1" stroke-width="3.2"/>
<circle clip-path="url(#clip052)" cx="280.231" cy="682.612" r="14.4" fill="#009af9" fill-rule="evenodd" fill-opacity="1" stroke="#000000" stroke-opacity="1" stroke-width="3.2"/>
<circle clip-path="url(#clip052)" cx="349.616" cy="684.711" r="14.4" fill="#009af9" fill-rule="evenodd" fill-opacity="1" stroke="#000000" stroke-opacity="1" stroke-width="3.2"/>
<circle clip-path="url(#clip052)" cx="419.001" cy="686.645" r="14.4" fill="#009af9" fill-rule="evenodd" fill-opacity="1" stroke="#000000" stroke-opacity="1" stroke-width="3.2"/>
<circle clip-path="url(#clip052)" cx="488.386" cy="500.434" r="14.4" fill="#009af9" fill-rule="evenodd" fill-opacity="1" stroke="#000000" stroke-opacity="1" stroke-width="3.2"/>
<circle clip-path="url(#clip052)" cx="557.77" cy="192.303" r="14.4" fill="#009af9" fill-rule="evenodd" fill-opacity="1" stroke="#000000" stroke-opacity="1" stroke-width="3.2"/>
<circle clip-path="url(#clip052)" cx="627.155" cy="361.897" r="14.4" fill="#009af9" fill-rule="evenodd" fill-opacity="1" stroke="#000000" stroke-opacity="1" stroke-width="3.2"/>
<circle clip-path="url(#clip052)" cx="696.54" cy="359.399" r="14.4" fill="#009af9" fill-rule="evenodd" fill-opacity="1" stroke="#000000" stroke-opacity="1" stroke-width="3.2"/>
<circle clip-path="url(#clip052)" cx="765.925" cy="366.809" r="14.4" fill="#009af9" fill-rule="evenodd" fill-opacity="1" stroke="#000000" stroke-opacity="1" stroke-width="3.2"/>
<circle clip-path="url(#clip052)" cx="835.31" cy="325.571" r="14.4" fill="#009af9" fill-rule="evenodd" fill-opacity="1" stroke="#000000" stroke-opacity="1" stroke-width="3.2"/>
<circle clip-path="url(#clip052)" cx="904.695" cy="369.139" r="14.4" fill="#009af9" fill-rule="evenodd" fill-opacity="1" stroke="#000000" stroke-opacity="1" stroke-width="3.2"/>
<circle clip-path="url(#clip052)" cx="974.079" cy="371.079" r="14.4" fill="#009af9" fill-rule="evenodd" fill-opacity="1" stroke="#000000" stroke-opacity="1" stroke-width="3.2"/>
<circle clip-path="url(#clip052)" cx="1043.46" cy="368.353" r="14.4" fill="#009af9" fill-rule="evenodd" fill-opacity="1" stroke="#000000" stroke-opacity="1" stroke-width="3.2"/>
<circle clip-path="url(#clip052)" cx="1112.85" cy="363.476" r="14.4" fill="#009af9" fill-rule="evenodd" fill-opacity="1" stroke="#000000" stroke-opacity="1" stroke-width="3.2"/>
<circle clip-path="url(#clip052)" cx="1182.23" cy="370.357" r="14.4" fill="#009af9" fill-rule="evenodd" fill-opacity="1" stroke="#000000" stroke-opacity="1" stroke-width="3.2"/>
<circle clip-path="url(#clip052)" cx="1251.62" cy="373.45" r="14.4" fill="#009af9" fill-rule="evenodd" fill-opacity="1" stroke="#000000" stroke-opacity="1" stroke-width="3.2"/>
<circle clip-path="url(#clip052)" cx="1321" cy="366.738" r="14.4" fill="#009af9" fill-rule="evenodd" fill-opacity="1" stroke="#000000" stroke-opacity="1" stroke-width="3.2"/>
<circle clip-path="url(#clip052)" cx="1390.39" cy="368.009" r="14.4" fill="#009af9" fill-rule="evenodd" fill-opacity="1" stroke="#000000" stroke-opacity="1" stroke-width="3.2"/>
<circle clip-path="url(#clip052)" cx="1459.77" cy="368.915" r="14.4" fill="#009af9" fill-rule="evenodd" fill-opacity="1" stroke="#000000" stroke-opacity="1" stroke-width="3.2"/>
<circle clip-path="url(#clip052)" cx="1529.16" cy="373.175" r="14.4" fill="#009af9" fill-rule="evenodd" fill-opacity="1" stroke="#000000" stroke-opacity="1" stroke-width="3.2"/>
<circle clip-path="url(#clip052)" cx="1598.54" cy="372.356" r="14.4" fill="#009af9" fill-rule="evenodd" fill-opacity="1" stroke="#000000" stroke-opacity="1" stroke-width="3.2"/>
<circle clip-path="url(#clip052)" cx="1667.93" cy="373.539" r="14.4" fill="#009af9" fill-rule="evenodd" fill-opacity="1" stroke="#000000" stroke-opacity="1" stroke-width="3.2"/>
<circle clip-path="url(#clip052)" cx="1737.31" cy="373.904" r="14.4" fill="#009af9" fill-rule="evenodd" fill-opacity="1" stroke="#000000" stroke-opacity="1" stroke-width="3.2"/>
<circle clip-path="url(#clip052)" cx="1806.7" cy="368.915" r="14.4" fill="#009af9" fill-rule="evenodd" fill-opacity="1" stroke="#000000" stroke-opacity="1" stroke-width="3.2"/>
<circle clip-path="url(#clip052)" cx="1876.08" cy="373.904" r="14.4" fill="#009af9" fill-rule="evenodd" fill-opacity="1" stroke="#000000" stroke-opacity="1" stroke-width="3.2"/>
<circle clip-path="url(#clip052)" cx="1945.47" cy="373.904" r="14.4" fill="#009af9" fill-rule="evenodd" fill-opacity="1" stroke="#000000" stroke-opacity="1" stroke-width="3.2"/>
<circle clip-path="url(#clip052)" cx="2014.85" cy="373.904" r="14.4" fill="#009af9" fill-rule="evenodd" fill-opacity="1" stroke="#000000" stroke-opacity="1" stroke-width="3.2"/>
<circle clip-path="url(#clip052)" cx="2084.24" cy="373.904" r="14.4" fill="#009af9" fill-rule="evenodd" fill-opacity="1" stroke="#000000" stroke-opacity="1" stroke-width="3.2"/>
<circle clip-path="url(#clip052)" cx="2153.62" cy="373.904" r="14.4" fill="#009af9" fill-rule="evenodd" fill-opacity="1" stroke="#000000" stroke-opacity="1" stroke-width="3.2"/>
<circle clip-path="url(#clip052)" cx="2223.01" cy="373.451" r="14.4" fill="#009af9" fill-rule="evenodd" fill-opacity="1" stroke="#000000" stroke-opacity="1" stroke-width="3.2"/>
<circle clip-path="url(#clip052)" cx="2292.39" cy="373.904" r="14.4" fill="#009af9" fill-rule="evenodd" fill-opacity="1" stroke="#000000" stroke-opacity="1" stroke-width="3.2"/>
<circle clip-path="url(#clip052)" cx="280.231" cy="683.247" r="14.4" fill="#009af9" fill-rule="evenodd" fill-opacity="1" stroke="#000000" stroke-opacity="1" stroke-width="3.2"/>
<circle clip-path="url(#clip052)" cx="349.616" cy="684.461" r="14.4" fill="#009af9" fill-rule="evenodd" fill-opacity="1" stroke="#000000" stroke-opacity="1" stroke-width="3.2"/>
<circle clip-path="url(#clip052)" cx="419.001" cy="471.625" r="14.4" fill="#009af9" fill-rule="evenodd" fill-opacity="1" stroke="#000000" stroke-opacity="1" stroke-width="3.2"/>
<circle clip-path="url(#clip052)" cx="488.386" cy="251.177" r="14.4" fill="#009af9" fill-rule="evenodd" fill-opacity="1" stroke="#000000" stroke-opacity="1" stroke-width="3.2"/>
<circle clip-path="url(#clip052)" cx="557.77" cy="273.934" r="14.4" fill="#009af9" fill-rule="evenodd" fill-opacity="1" stroke="#000000" stroke-opacity="1" stroke-width="3.2"/>
<circle clip-path="url(#clip052)" cx="627.155" cy="365.629" r="14.4" fill="#009af9" fill-rule="evenodd" fill-opacity="1" stroke="#000000" stroke-opacity="1" stroke-width="3.2"/>
<circle clip-path="url(#clip052)" cx="696.54" cy="279.473" r="14.4" fill="#009af9" fill-rule="evenodd" fill-opacity="1" stroke="#000000" stroke-opacity="1" stroke-width="3.2"/>
<circle clip-path="url(#clip052)" cx="765.925" cy="365.913" r="14.4" fill="#009af9" fill-rule="evenodd" fill-opacity="1" stroke="#000000" stroke-opacity="1" stroke-width="3.2"/>
<circle clip-path="url(#clip052)" cx="835.31" cy="353.863" r="14.4" fill="#009af9" fill-rule="evenodd" fill-opacity="1" stroke="#000000" stroke-opacity="1" stroke-width="3.2"/>
<circle clip-path="url(#clip052)" cx="904.695" cy="366.731" r="14.4" fill="#009af9" fill-rule="evenodd" fill-opacity="1" stroke="#000000" stroke-opacity="1" stroke-width="3.2"/>
<circle clip-path="url(#clip052)" cx="974.079" cy="362.364" r="14.4" fill="#009af9" fill-rule="evenodd" fill-opacity="1" stroke="#000000" stroke-opacity="1" stroke-width="3.2"/>
<circle clip-path="url(#clip052)" cx="1043.46" cy="321.04" r="14.4" fill="#009af9" fill-rule="evenodd" fill-opacity="1" stroke="#000000" stroke-opacity="1" stroke-width="3.2"/>
<circle clip-path="url(#clip052)" cx="1112.85" cy="365.637" r="14.4" fill="#009af9" fill-rule="evenodd" fill-opacity="1" stroke="#000000" stroke-opacity="1" stroke-width="3.2"/>
<circle clip-path="url(#clip052)" cx="1182.23" cy="366.645" r="14.4" fill="#009af9" fill-rule="evenodd" fill-opacity="1" stroke="#000000" stroke-opacity="1" stroke-width="3.2"/>
<circle clip-path="url(#clip052)" cx="1251.62" cy="363.209" r="14.4" fill="#009af9" fill-rule="evenodd" fill-opacity="1" stroke="#000000" stroke-opacity="1" stroke-width="3.2"/>
<circle clip-path="url(#clip052)" cx="1321" cy="366.287" r="14.4" fill="#009af9" fill-rule="evenodd" fill-opacity="1" stroke="#000000" stroke-opacity="1" stroke-width="3.2"/>
<circle clip-path="url(#clip052)" cx="1390.39" cy="373.904" r="14.4" fill="#009af9" fill-rule="evenodd" fill-opacity="1" stroke="#000000" stroke-opacity="1" stroke-width="3.2"/>
<circle clip-path="url(#clip052)" cx="1459.77" cy="369.368" r="14.4" fill="#009af9" fill-rule="evenodd" fill-opacity="1" stroke="#000000" stroke-opacity="1" stroke-width="3.2"/>
<circle clip-path="url(#clip052)" cx="1529.16" cy="373.904" r="14.4" fill="#009af9" fill-rule="evenodd" fill-opacity="1" stroke="#000000" stroke-opacity="1" stroke-width="3.2"/>
<circle clip-path="url(#clip052)" cx="1598.54" cy="366.003" r="14.4" fill="#009af9" fill-rule="evenodd" fill-opacity="1" stroke="#000000" stroke-opacity="1" stroke-width="3.2"/>
<circle clip-path="url(#clip052)" cx="1667.93" cy="372.899" r="14.4" fill="#009af9" fill-rule="evenodd" fill-opacity="1" stroke="#000000" stroke-opacity="1" stroke-width="3.2"/>
<circle clip-path="url(#clip052)" cx="1737.31" cy="372.542" r="14.4" fill="#009af9" fill-rule="evenodd" fill-opacity="1" stroke="#000000" stroke-opacity="1" stroke-width="3.2"/>
<circle clip-path="url(#clip052)" cx="1806.7" cy="370.906" r="14.4" fill="#009af9" fill-rule="evenodd" fill-opacity="1" stroke="#000000" stroke-opacity="1" stroke-width="3.2"/>
<circle clip-path="url(#clip052)" cx="1876.08" cy="372.177" r="14.4" fill="#009af9" fill-rule="evenodd" fill-opacity="1" stroke="#000000" stroke-opacity="1" stroke-width="3.2"/>
<circle clip-path="url(#clip052)" cx="1945.47" cy="371.724" r="14.4" fill="#009af9" fill-rule="evenodd" fill-opacity="1" stroke="#000000" stroke-opacity="1" stroke-width="3.2"/>
<circle clip-path="url(#clip052)" cx="2014.85" cy="373.904" r="14.4" fill="#009af9" fill-rule="evenodd" fill-opacity="1" stroke="#000000" stroke-opacity="1" stroke-width="3.2"/>
<circle clip-path="url(#clip052)" cx="2084.24" cy="373.904" r="14.4" fill="#009af9" fill-rule="evenodd" fill-opacity="1" stroke="#000000" stroke-opacity="1" stroke-width="3.2"/>
<circle clip-path="url(#clip052)" cx="2153.62" cy="373.451" r="14.4" fill="#009af9" fill-rule="evenodd" fill-opacity="1" stroke="#000000" stroke-opacity="1" stroke-width="3.2"/>
<circle clip-path="url(#clip052)" cx="2223.01" cy="373.904" r="14.4" fill="#009af9" fill-rule="evenodd" fill-opacity="1" stroke="#000000" stroke-opacity="1" stroke-width="3.2"/>
<circle clip-path="url(#clip052)" cx="2292.39" cy="373.904" r="14.4" fill="#009af9" fill-rule="evenodd" fill-opacity="1" stroke="#000000" stroke-opacity="1" stroke-width="3.2"/>
<circle clip-path="url(#clip052)" cx="280.231" cy="684.363" r="14.4" fill="#009af9" fill-rule="evenodd" fill-opacity="1" stroke="#000000" stroke-opacity="1" stroke-width="3.2"/>
<circle clip-path="url(#clip052)" cx="349.616" cy="610.267" r="14.4" fill="#009af9" fill-rule="evenodd" fill-opacity="1" stroke="#000000" stroke-opacity="1" stroke-width="3.2"/>
<circle clip-path="url(#clip052)" cx="419.001" cy="209.127" r="14.4" fill="#009af9" fill-rule="evenodd" fill-opacity="1" stroke="#000000" stroke-opacity="1" stroke-width="3.2"/>
<circle clip-path="url(#clip052)" cx="488.386" cy="233.787" r="14.4" fill="#009af9" fill-rule="evenodd" fill-opacity="1" stroke="#000000" stroke-opacity="1" stroke-width="3.2"/>
<circle clip-path="url(#clip052)" cx="557.77" cy="172.619" r="14.4" fill="#009af9" fill-rule="evenodd" fill-opacity="1" stroke="#000000" stroke-opacity="1" stroke-width="3.2"/>
<circle clip-path="url(#clip052)" cx="627.155" cy="359.982" r="14.4" fill="#009af9" fill-rule="evenodd" fill-opacity="1" stroke="#000000" stroke-opacity="1" stroke-width="3.2"/>
<circle clip-path="url(#clip052)" cx="696.54" cy="295.651" r="14.4" fill="#009af9" fill-rule="evenodd" fill-opacity="1" stroke="#000000" stroke-opacity="1" stroke-width="3.2"/>
<circle clip-path="url(#clip052)" cx="765.925" cy="366.096" r="14.4" fill="#009af9" fill-rule="evenodd" fill-opacity="1" stroke="#000000" stroke-opacity="1" stroke-width="3.2"/>
<circle clip-path="url(#clip052)" cx="835.31" cy="297.98" r="14.4" fill="#009af9" fill-rule="evenodd" fill-opacity="1" stroke="#000000" stroke-opacity="1" stroke-width="3.2"/>
<circle clip-path="url(#clip052)" cx="904.695" cy="373.904" r="14.4" fill="#009af9" fill-rule="evenodd" fill-opacity="1" stroke="#000000" stroke-opacity="1" stroke-width="3.2"/>
<circle clip-path="url(#clip052)" cx="974.079" cy="365.54" r="14.4" fill="#009af9" fill-rule="evenodd" fill-opacity="1" stroke="#000000" stroke-opacity="1" stroke-width="3.2"/>
<circle clip-path="url(#clip052)" cx="1043.46" cy="362.48" r="14.4" fill="#009af9" fill-rule="evenodd" fill-opacity="1" stroke="#000000" stroke-opacity="1" stroke-width="3.2"/>
<circle clip-path="url(#clip052)" cx="1112.85" cy="370.728" r="14.4" fill="#009af9" fill-rule="evenodd" fill-opacity="1" stroke="#000000" stroke-opacity="1" stroke-width="3.2"/>
<circle clip-path="url(#clip052)" cx="1182.23" cy="373.175" r="14.4" fill="#009af9" fill-rule="evenodd" fill-opacity="1" stroke="#000000" stroke-opacity="1" stroke-width="3.2"/>
<circle clip-path="url(#clip052)" cx="1251.62" cy="373.45" r="14.4" fill="#009af9" fill-rule="evenodd" fill-opacity="1" stroke="#000000" stroke-opacity="1" stroke-width="3.2"/>
<circle clip-path="url(#clip052)" cx="1321" cy="372.088" r="14.4" fill="#009af9" fill-rule="evenodd" fill-opacity="1" stroke="#000000" stroke-opacity="1" stroke-width="3.2"/>
<circle clip-path="url(#clip052)" cx="1390.39" cy="369.547" r="14.4" fill="#009af9" fill-rule="evenodd" fill-opacity="1" stroke="#000000" stroke-opacity="1" stroke-width="3.2"/>
<circle clip-path="url(#clip052)" cx="1459.77" cy="373.175" r="14.4" fill="#009af9" fill-rule="evenodd" fill-opacity="1" stroke="#000000" stroke-opacity="1" stroke-width="3.2"/>
<circle clip-path="url(#clip052)" cx="1529.16" cy="372.178" r="14.4" fill="#009af9" fill-rule="evenodd" fill-opacity="1" stroke="#000000" stroke-opacity="1" stroke-width="3.2"/>
<circle clip-path="url(#clip052)" cx="1598.54" cy="372.542" r="14.4" fill="#009af9" fill-rule="evenodd" fill-opacity="1" stroke="#000000" stroke-opacity="1" stroke-width="3.2"/>
<circle clip-path="url(#clip052)" cx="1667.93" cy="370.276" r="14.4" fill="#009af9" fill-rule="evenodd" fill-opacity="1" stroke="#000000" stroke-opacity="1" stroke-width="3.2"/>
<circle clip-path="url(#clip052)" cx="1737.31" cy="368.639" r="14.4" fill="#009af9" fill-rule="evenodd" fill-opacity="1" stroke="#000000" stroke-opacity="1" stroke-width="3.2"/>
<circle clip-path="url(#clip052)" cx="1806.7" cy="373.904" r="14.4" fill="#009af9" fill-rule="evenodd" fill-opacity="1" stroke="#000000" stroke-opacity="1" stroke-width="3.2"/>
<circle clip-path="url(#clip052)" cx="1876.08" cy="373.904" r="14.4" fill="#009af9" fill-rule="evenodd" fill-opacity="1" stroke="#000000" stroke-opacity="1" stroke-width="3.2"/>
<circle clip-path="url(#clip052)" cx="1945.47" cy="373.539" r="14.4" fill="#009af9" fill-rule="evenodd" fill-opacity="1" stroke="#000000" stroke-opacity="1" stroke-width="3.2"/>
<circle clip-path="url(#clip052)" cx="2014.85" cy="373.539" r="14.4" fill="#009af9" fill-rule="evenodd" fill-opacity="1" stroke="#000000" stroke-opacity="1" stroke-width="3.2"/>
<circle clip-path="url(#clip052)" cx="2084.24" cy="373.904" r="14.4" fill="#009af9" fill-rule="evenodd" fill-opacity="1" stroke="#000000" stroke-opacity="1" stroke-width="3.2"/>
<circle clip-path="url(#clip052)" cx="2153.62" cy="373.904" r="14.4" fill="#009af9" fill-rule="evenodd" fill-opacity="1" stroke="#000000" stroke-opacity="1" stroke-width="3.2"/>
<circle clip-path="url(#clip052)" cx="2223.01" cy="373.904" r="14.4" fill="#009af9" fill-rule="evenodd" fill-opacity="1" stroke="#000000" stroke-opacity="1" stroke-width="3.2"/>
<circle clip-path="url(#clip052)" cx="2292.39" cy="373.904" r="14.4" fill="#009af9" fill-rule="evenodd" fill-opacity="1" stroke="#000000" stroke-opacity="1" stroke-width="3.2"/>
<circle clip-path="url(#clip052)" cx="280.231" cy="683.027" r="14.4" fill="#009af9" fill-rule="evenodd" fill-opacity="1" stroke="#000000" stroke-opacity="1" stroke-width="3.2"/>
<circle clip-path="url(#clip052)" cx="349.616" cy="639.152" r="14.4" fill="#009af9" fill-rule="evenodd" fill-opacity="1" stroke="#000000" stroke-opacity="1" stroke-width="3.2"/>
<circle clip-path="url(#clip052)" cx="419.001" cy="465.388" r="14.4" fill="#009af9" fill-rule="evenodd" fill-opacity="1" stroke="#000000" stroke-opacity="1" stroke-width="3.2"/>
<circle clip-path="url(#clip052)" cx="488.386" cy="368.512" r="14.4" fill="#009af9" fill-rule="evenodd" fill-opacity="1" stroke="#000000" stroke-opacity="1" stroke-width="3.2"/>
<circle clip-path="url(#clip052)" cx="557.77" cy="290.088" r="14.4" fill="#009af9" fill-rule="evenodd" fill-opacity="1" stroke="#000000" stroke-opacity="1" stroke-width="3.2"/>
<circle clip-path="url(#clip052)" cx="627.155" cy="365.075" r="14.4" fill="#009af9" fill-rule="evenodd" fill-opacity="1" stroke="#000000" stroke-opacity="1" stroke-width="3.2"/>
<circle clip-path="url(#clip052)" cx="696.54" cy="395.475" r="14.4" fill="#009af9" fill-rule="evenodd" fill-opacity="1" stroke="#000000" stroke-opacity="1" stroke-width="3.2"/>
<circle clip-path="url(#clip052)" cx="765.925" cy="352.309" r="14.4" fill="#009af9" fill-rule="evenodd" fill-opacity="1" stroke="#000000" stroke-opacity="1" stroke-width="3.2"/>
<circle clip-path="url(#clip052)" cx="835.31" cy="225.109" r="14.4" fill="#009af9" fill-rule="evenodd" fill-opacity="1" stroke="#000000" stroke-opacity="1" stroke-width="3.2"/>
<circle clip-path="url(#clip052)" cx="904.695" cy="372.08" r="14.4" fill="#009af9" fill-rule="evenodd" fill-opacity="1" stroke="#000000" stroke-opacity="1" stroke-width="3.2"/>
<circle clip-path="url(#clip052)" cx="974.079" cy="361.217" r="14.4" fill="#009af9" fill-rule="evenodd" fill-opacity="1" stroke="#000000" stroke-opacity="1" stroke-width="3.2"/>
<circle clip-path="url(#clip052)" cx="1043.46" cy="369.629" r="14.4" fill="#009af9" fill-rule="evenodd" fill-opacity="1" stroke="#000000" stroke-opacity="1" stroke-width="3.2"/>
<circle clip-path="url(#clip052)" cx="1112.85" cy="365.727" r="14.4" fill="#009af9" fill-rule="evenodd" fill-opacity="1" stroke="#000000" stroke-opacity="1" stroke-width="3.2"/>
<circle clip-path="url(#clip052)" cx="1182.23" cy="368.186" r="14.4" fill="#009af9" fill-rule="evenodd" fill-opacity="1" stroke="#000000" stroke-opacity="1" stroke-width="3.2"/>
<circle clip-path="url(#clip052)" cx="1251.62" cy="373.175" r="14.4" fill="#009af9" fill-rule="evenodd" fill-opacity="1" stroke="#000000" stroke-opacity="1" stroke-width="3.2"/>
<circle clip-path="url(#clip052)" cx="1321" cy="368.915" r="14.4" fill="#009af9" fill-rule="evenodd" fill-opacity="1" stroke="#000000" stroke-opacity="1" stroke-width="3.2"/>
<circle clip-path="url(#clip052)" cx="1390.39" cy="365.649" r="14.4" fill="#009af9" fill-rule="evenodd" fill-opacity="1" stroke="#000000" stroke-opacity="1" stroke-width="3.2"/>
<circle clip-path="url(#clip052)" cx="1459.77" cy="367.556" r="14.4" fill="#009af9" fill-rule="evenodd" fill-opacity="1" stroke="#000000" stroke-opacity="1" stroke-width="3.2"/>
<circle clip-path="url(#clip052)" cx="1529.16" cy="372.177" r="14.4" fill="#009af9" fill-rule="evenodd" fill-opacity="1" stroke="#000000" stroke-opacity="1" stroke-width="3.2"/>
<circle clip-path="url(#clip052)" cx="1598.54" cy="373.904" r="14.4" fill="#009af9" fill-rule="evenodd" fill-opacity="1" stroke="#000000" stroke-opacity="1" stroke-width="3.2"/>
<circle clip-path="url(#clip052)" cx="1667.93" cy="373.904" r="14.4" fill="#009af9" fill-rule="evenodd" fill-opacity="1" stroke="#000000" stroke-opacity="1" stroke-width="3.2"/>
<circle clip-path="url(#clip052)" cx="1737.31" cy="373.904" r="14.4" fill="#009af9" fill-rule="evenodd" fill-opacity="1" stroke="#000000" stroke-opacity="1" stroke-width="3.2"/>
<circle clip-path="url(#clip052)" cx="1806.7" cy="373.451" r="14.4" fill="#009af9" fill-rule="evenodd" fill-opacity="1" stroke="#000000" stroke-opacity="1" stroke-width="3.2"/>
<circle clip-path="url(#clip052)" cx="1876.08" cy="373.539" r="14.4" fill="#009af9" fill-rule="evenodd" fill-opacity="1" stroke="#000000" stroke-opacity="1" stroke-width="3.2"/>
<circle clip-path="url(#clip052)" cx="1945.47" cy="373.904" r="14.4" fill="#009af9" fill-rule="evenodd" fill-opacity="1" stroke="#000000" stroke-opacity="1" stroke-width="3.2"/>
<circle clip-path="url(#clip052)" cx="2014.85" cy="373.904" r="14.4" fill="#009af9" fill-rule="evenodd" fill-opacity="1" stroke="#000000" stroke-opacity="1" stroke-width="3.2"/>
<circle clip-path="url(#clip052)" cx="2084.24" cy="373.904" r="14.4" fill="#009af9" fill-rule="evenodd" fill-opacity="1" stroke="#000000" stroke-opacity="1" stroke-width="3.2"/>
<circle clip-path="url(#clip052)" cx="2153.62" cy="373.904" r="14.4" fill="#009af9" fill-rule="evenodd" fill-opacity="1" stroke="#000000" stroke-opacity="1" stroke-width="3.2"/>
<circle clip-path="url(#clip052)" cx="2223.01" cy="373.904" r="14.4" fill="#009af9" fill-rule="evenodd" fill-opacity="1" stroke="#000000" stroke-opacity="1" stroke-width="3.2"/>
<circle clip-path="url(#clip052)" cx="2292.39" cy="373.904" r="14.4" fill="#009af9" fill-rule="evenodd" fill-opacity="1" stroke="#000000" stroke-opacity="1" stroke-width="3.2"/>
<circle clip-path="url(#clip052)" cx="280.231" cy="674.155" r="14.4" fill="#009af9" fill-rule="evenodd" fill-opacity="1" stroke="#000000" stroke-opacity="1" stroke-width="3.2"/>
<circle clip-path="url(#clip052)" cx="349.616" cy="337.364" r="14.4" fill="#009af9" fill-rule="evenodd" fill-opacity="1" stroke="#000000" stroke-opacity="1" stroke-width="3.2"/>
<circle clip-path="url(#clip052)" cx="419.001" cy="285.407" r="14.4" fill="#009af9" fill-rule="evenodd" fill-opacity="1" stroke="#000000" stroke-opacity="1" stroke-width="3.2"/>
<circle clip-path="url(#clip052)" cx="488.386" cy="349.816" r="14.4" fill="#009af9" fill-rule="evenodd" fill-opacity="1" stroke="#000000" stroke-opacity="1" stroke-width="3.2"/>
<circle clip-path="url(#clip052)" cx="557.77" cy="260.799" r="14.4" fill="#009af9" fill-rule="evenodd" fill-opacity="1" stroke="#000000" stroke-opacity="1" stroke-width="3.2"/>
<circle clip-path="url(#clip052)" cx="627.155" cy="364.609" r="14.4" fill="#009af9" fill-rule="evenodd" fill-opacity="1" stroke="#000000" stroke-opacity="1" stroke-width="3.2"/>
<circle clip-path="url(#clip052)" cx="696.54" cy="352.811" r="14.4" fill="#009af9" fill-rule="evenodd" fill-opacity="1" stroke="#000000" stroke-opacity="1" stroke-width="3.2"/>
<circle clip-path="url(#clip052)" cx="765.925" cy="369.498" r="14.4" fill="#009af9" fill-rule="evenodd" fill-opacity="1" stroke="#000000" stroke-opacity="1" stroke-width="3.2"/>
<circle clip-path="url(#clip052)" cx="835.31" cy="359.679" r="14.4" fill="#009af9" fill-rule="evenodd" fill-opacity="1" stroke="#000000" stroke-opacity="1" stroke-width="3.2"/>
<circle clip-path="url(#clip052)" cx="904.695" cy="366.83" r="14.4" fill="#009af9" fill-rule="evenodd" fill-opacity="1" stroke="#000000" stroke-opacity="1" stroke-width="3.2"/>
<circle clip-path="url(#clip052)" cx="974.079" cy="366.545" r="14.4" fill="#009af9" fill-rule="evenodd" fill-opacity="1" stroke="#000000" stroke-opacity="1" stroke-width="3.2"/>
<circle clip-path="url(#clip052)" cx="1043.46" cy="369.546" r="14.4" fill="#009af9" fill-rule="evenodd" fill-opacity="1" stroke="#000000" stroke-opacity="1" stroke-width="3.2"/>
<circle clip-path="url(#clip052)" cx="1112.85" cy="372.542" r="14.4" fill="#009af9" fill-rule="evenodd" fill-opacity="1" stroke="#000000" stroke-opacity="1" stroke-width="3.2"/>
<circle clip-path="url(#clip052)" cx="1182.23" cy="373.904" r="14.4" fill="#009af9" fill-rule="evenodd" fill-opacity="1" stroke="#000000" stroke-opacity="1" stroke-width="3.2"/>
<circle clip-path="url(#clip052)" cx="1251.62" cy="373.904" r="14.4" fill="#009af9" fill-rule="evenodd" fill-opacity="1" stroke="#000000" stroke-opacity="1" stroke-width="3.2"/>
<circle clip-path="url(#clip052)" cx="1321" cy="367.557" r="14.4" fill="#009af9" fill-rule="evenodd" fill-opacity="1" stroke="#000000" stroke-opacity="1" stroke-width="3.2"/>
<circle clip-path="url(#clip052)" cx="1390.39" cy="368.456" r="14.4" fill="#009af9" fill-rule="evenodd" fill-opacity="1" stroke="#000000" stroke-opacity="1" stroke-width="3.2"/>
<circle clip-path="url(#clip052)" cx="1459.77" cy="372.81" r="14.4" fill="#009af9" fill-rule="evenodd" fill-opacity="1" stroke="#000000" stroke-opacity="1" stroke-width="3.2"/>
<circle clip-path="url(#clip052)" cx="1529.16" cy="365.53" r="14.4" fill="#009af9" fill-rule="evenodd" fill-opacity="1" stroke="#000000" stroke-opacity="1" stroke-width="3.2"/>
<circle clip-path="url(#clip052)" cx="1598.54" cy="371.813" r="14.4" fill="#009af9" fill-rule="evenodd" fill-opacity="1" stroke="#000000" stroke-opacity="1" stroke-width="3.2"/>
<circle clip-path="url(#clip052)" cx="1667.93" cy="373.904" r="14.4" fill="#009af9" fill-rule="evenodd" fill-opacity="1" stroke="#000000" stroke-opacity="1" stroke-width="3.2"/>
<circle clip-path="url(#clip052)" cx="1737.31" cy="372.178" r="14.4" fill="#009af9" fill-rule="evenodd" fill-opacity="1" stroke="#000000" stroke-opacity="1" stroke-width="3.2"/>
<circle clip-path="url(#clip052)" cx="1806.7" cy="370.453" r="14.4" fill="#009af9" fill-rule="evenodd" fill-opacity="1" stroke="#000000" stroke-opacity="1" stroke-width="3.2"/>
<circle clip-path="url(#clip052)" cx="1876.08" cy="373.904" r="14.4" fill="#009af9" fill-rule="evenodd" fill-opacity="1" stroke="#000000" stroke-opacity="1" stroke-width="3.2"/>
<circle clip-path="url(#clip052)" cx="1945.47" cy="373.904" r="14.4" fill="#009af9" fill-rule="evenodd" fill-opacity="1" stroke="#000000" stroke-opacity="1" stroke-width="3.2"/>
<circle clip-path="url(#clip052)" cx="2014.85" cy="372.178" r="14.4" fill="#009af9" fill-rule="evenodd" fill-opacity="1" stroke="#000000" stroke-opacity="1" stroke-width="3.2"/>
<circle clip-path="url(#clip052)" cx="2084.24" cy="373.904" r="14.4" fill="#009af9" fill-rule="evenodd" fill-opacity="1" stroke="#000000" stroke-opacity="1" stroke-width="3.2"/>
<circle clip-path="url(#clip052)" cx="2153.62" cy="373.904" r="14.4" fill="#009af9" fill-rule="evenodd" fill-opacity="1" stroke="#000000" stroke-opacity="1" stroke-width="3.2"/>
<circle clip-path="url(#clip052)" cx="2223.01" cy="373.45" r="14.4" fill="#009af9" fill-rule="evenodd" fill-opacity="1" stroke="#000000" stroke-opacity="1" stroke-width="3.2"/>
<circle clip-path="url(#clip052)" cx="2292.39" cy="373.904" r="14.4" fill="#009af9" fill-rule="evenodd" fill-opacity="1" stroke="#000000" stroke-opacity="1" stroke-width="3.2"/>
<circle clip-path="url(#clip052)" cx="280.231" cy="685.116" r="14.4" fill="#009af9" fill-rule="evenodd" fill-opacity="1" stroke="#000000" stroke-opacity="1" stroke-width="3.2"/>
<circle clip-path="url(#clip052)" cx="349.616" cy="665.005" r="14.4" fill="#009af9" fill-rule="evenodd" fill-opacity="1" stroke="#000000" stroke-opacity="1" stroke-width="3.2"/>
<circle clip-path="url(#clip052)" cx="419.001" cy="371.692" r="14.4" fill="#009af9" fill-rule="evenodd" fill-opacity="1" stroke="#000000" stroke-opacity="1" stroke-width="3.2"/>
<circle clip-path="url(#clip052)" cx="488.386" cy="264.102" r="14.4" fill="#009af9" fill-rule="evenodd" fill-opacity="1" stroke="#000000" stroke-opacity="1" stroke-width="3.2"/>
<circle clip-path="url(#clip052)" cx="557.77" cy="360" r="14.4" fill="#009af9" fill-rule="evenodd" fill-opacity="1" stroke="#000000" stroke-opacity="1" stroke-width="3.2"/>
<circle clip-path="url(#clip052)" cx="627.155" cy="374.128" r="14.4" fill="#009af9" fill-rule="evenodd" fill-opacity="1" stroke="#000000" stroke-opacity="1" stroke-width="3.2"/>
<circle clip-path="url(#clip052)" cx="696.54" cy="369.481" r="14.4" fill="#009af9" fill-rule="evenodd" fill-opacity="1" stroke="#000000" stroke-opacity="1" stroke-width="3.2"/>
<circle clip-path="url(#clip052)" cx="765.925" cy="355.329" r="14.4" fill="#009af9" fill-rule="evenodd" fill-opacity="1" stroke="#000000" stroke-opacity="1" stroke-width="3.2"/>
<circle clip-path="url(#clip052)" cx="835.31" cy="362.387" r="14.4" fill="#009af9" fill-rule="evenodd" fill-opacity="1" stroke="#000000" stroke-opacity="1" stroke-width="3.2"/>
<circle clip-path="url(#clip052)" cx="904.695" cy="294.049" r="14.4" fill="#009af9" fill-rule="evenodd" fill-opacity="1" stroke="#000000" stroke-opacity="1" stroke-width="3.2"/>
<circle clip-path="url(#clip052)" cx="974.079" cy="360.565" r="14.4" fill="#009af9" fill-rule="evenodd" fill-opacity="1" stroke="#000000" stroke-opacity="1" stroke-width="3.2"/>
<circle clip-path="url(#clip052)" cx="1043.46" cy="370.453" r="14.4" fill="#009af9" fill-rule="evenodd" fill-opacity="1" stroke="#000000" stroke-opacity="1" stroke-width="3.2"/>
<circle clip-path="url(#clip052)" cx="1112.85" cy="370.275" r="14.4" fill="#009af9" fill-rule="evenodd" fill-opacity="1" stroke="#000000" stroke-opacity="1" stroke-width="3.2"/>
<circle clip-path="url(#clip052)" cx="1182.23" cy="367.277" r="14.4" fill="#009af9" fill-rule="evenodd" fill-opacity="1" stroke="#000000" stroke-opacity="1" stroke-width="3.2"/>
<circle clip-path="url(#clip052)" cx="1251.62" cy="373.539" r="14.4" fill="#009af9" fill-rule="evenodd" fill-opacity="1" stroke="#000000" stroke-opacity="1" stroke-width="3.2"/>
<circle clip-path="url(#clip052)" cx="1321" cy="371.271" r="14.4" fill="#009af9" fill-rule="evenodd" fill-opacity="1" stroke="#000000" stroke-opacity="1" stroke-width="3.2"/>
<circle clip-path="url(#clip052)" cx="1390.39" cy="372.542" r="14.4" fill="#009af9" fill-rule="evenodd" fill-opacity="1" stroke="#000000" stroke-opacity="1" stroke-width="3.2"/>
<circle clip-path="url(#clip052)" cx="1459.77" cy="372.177" r="14.4" fill="#009af9" fill-rule="evenodd" fill-opacity="1" stroke="#000000" stroke-opacity="1" stroke-width="3.2"/>
<circle clip-path="url(#clip052)" cx="1529.16" cy="369.368" r="14.4" fill="#009af9" fill-rule="evenodd" fill-opacity="1" stroke="#000000" stroke-opacity="1" stroke-width="3.2"/>
<circle clip-path="url(#clip052)" cx="1598.54" cy="371.634" r="14.4" fill="#009af9" fill-rule="evenodd" fill-opacity="1" stroke="#000000" stroke-opacity="1" stroke-width="3.2"/>
<circle clip-path="url(#clip052)" cx="1667.93" cy="369.724" r="14.4" fill="#009af9" fill-rule="evenodd" fill-opacity="1" stroke="#000000" stroke-opacity="1" stroke-width="3.2"/>
<circle clip-path="url(#clip052)" cx="1737.31" cy="365.098" r="14.4" fill="#009af9" fill-rule="evenodd" fill-opacity="1" stroke="#000000" stroke-opacity="1" stroke-width="3.2"/>
<circle clip-path="url(#clip052)" cx="1806.7" cy="373.904" r="14.4" fill="#009af9" fill-rule="evenodd" fill-opacity="1" stroke="#000000" stroke-opacity="1" stroke-width="3.2"/>
<circle clip-path="url(#clip052)" cx="1876.08" cy="373.904" r="14.4" fill="#009af9" fill-rule="evenodd" fill-opacity="1" stroke="#000000" stroke-opacity="1" stroke-width="3.2"/>
<circle clip-path="url(#clip052)" cx="1945.47" cy="373.904" r="14.4" fill="#009af9" fill-rule="evenodd" fill-opacity="1" stroke="#000000" stroke-opacity="1" stroke-width="3.2"/>
<circle clip-path="url(#clip052)" cx="2014.85" cy="373.904" r="14.4" fill="#009af9" fill-rule="evenodd" fill-opacity="1" stroke="#000000" stroke-opacity="1" stroke-width="3.2"/>
<circle clip-path="url(#clip052)" cx="2084.24" cy="373.904" r="14.4" fill="#009af9" fill-rule="evenodd" fill-opacity="1" stroke="#000000" stroke-opacity="1" stroke-width="3.2"/>
<circle clip-path="url(#clip052)" cx="2153.62" cy="373.904" r="14.4" fill="#009af9" fill-rule="evenodd" fill-opacity="1" stroke="#000000" stroke-opacity="1" stroke-width="3.2"/>
<circle clip-path="url(#clip052)" cx="2223.01" cy="373.904" r="14.4" fill="#009af9" fill-rule="evenodd" fill-opacity="1" stroke="#000000" stroke-opacity="1" stroke-width="3.2"/>
<circle clip-path="url(#clip052)" cx="2292.39" cy="373.904" r="14.4" fill="#009af9" fill-rule="evenodd" fill-opacity="1" stroke="#000000" stroke-opacity="1" stroke-width="3.2"/>
<path clip-path="url(#clip050)" d="M1968.51 1379.86 L2281.66 1379.86 L2281.66 1276.18 L1968.51 1276.18  Z" fill="#ffffff" fill-rule="evenodd" fill-opacity="1"/>
<polyline clip-path="url(#clip050)" style="stroke:#000000; stroke-linecap:round; stroke-linejoin:round; stroke-width:4; stroke-opacity:1; fill:none" points="1968.51,1379.86 2281.66,1379.86 2281.66,1276.18 1968.51,1276.18 1968.51,1379.86 "/>
<circle clip-path="url(#clip050)" cx="2063.31" cy="1328.02" r="20.48" fill="#009af9" fill-rule="evenodd" fill-opacity="1" stroke="#000000" stroke-opacity="1" stroke-width="4.55111"/>
<path clip-path="url(#clip050)" d="M2177.01 1323.31 L2177.01 1309.28 L2181.27 1309.28 L2181.27 1345.3 L2177.01 1345.3 L2177.01 1341.41 Q2175.67 1343.72 2173.61 1344.86 Q2171.57 1345.97 2168.7 1345.97 Q2164 1345.97 2161.04 1342.22 Q2158.1 1338.47 2158.1 1332.36 Q2158.1 1326.25 2161.04 1322.5 Q2164 1318.75 2168.7 1318.75 Q2171.57 1318.75 2173.61 1319.88 Q2175.67 1320.99 2177.01 1323.31 M2162.5 1332.36 Q2162.5 1337.06 2164.42 1339.74 Q2166.36 1342.4 2169.74 1342.4 Q2173.12 1342.4 2175.07 1339.74 Q2177.01 1337.06 2177.01 1332.36 Q2177.01 1327.66 2175.07 1325 Q2173.12 1322.31 2169.74 1322.31 Q2166.36 1322.31 2164.42 1325 Q2162.5 1327.66 2162.5 1332.36 Z" fill="#000000" fill-rule="nonzero" fill-opacity="1" /><path clip-path="url(#clip050)" d="M2201.83 1332.26 Q2196.66 1332.26 2194.67 1333.44 Q2192.68 1334.63 2192.68 1337.47 Q2192.68 1339.74 2194.16 1341.08 Q2195.67 1342.4 2198.24 1342.4 Q2201.78 1342.4 2203.91 1339.9 Q2206.06 1337.38 2206.06 1333.21 L2206.06 1332.26 L2201.83 1332.26 M2210.32 1330.5 L2210.32 1345.3 L2206.06 1345.3 L2206.06 1341.36 Q2204.6 1343.72 2202.43 1344.86 Q2200.25 1345.97 2197.1 1345.97 Q2193.12 1345.97 2190.76 1343.75 Q2188.42 1341.5 2188.42 1337.75 Q2188.42 1333.38 2191.34 1331.15 Q2194.28 1328.93 2200.09 1328.93 L2206.06 1328.93 L2206.06 1328.51 Q2206.06 1325.57 2204.12 1323.98 Q2202.2 1322.36 2198.7 1322.36 Q2196.48 1322.36 2194.37 1322.89 Q2192.27 1323.42 2190.32 1324.49 L2190.32 1320.55 Q2192.66 1319.65 2194.86 1319.21 Q2197.06 1318.75 2199.14 1318.75 Q2204.77 1318.75 2207.54 1321.66 Q2210.32 1324.58 2210.32 1330.5 Z" fill="#000000" fill-rule="nonzero" fill-opacity="1" /><path clip-path="url(#clip050)" d="M2223.31 1312.01 L2223.31 1319.37 L2232.08 1319.37 L2232.08 1322.68 L2223.31 1322.68 L2223.31 1336.75 Q2223.31 1339.93 2224.16 1340.83 Q2225.04 1341.73 2227.71 1341.73 L2232.08 1341.73 L2232.08 1345.3 L2227.71 1345.3 Q2222.78 1345.3 2220.9 1343.47 Q2219.03 1341.62 2219.03 1336.75 L2219.03 1322.68 L2215.9 1322.68 L2215.9 1319.37 L2219.03 1319.37 L2219.03 1312.01 L2223.31 1312.01 Z" fill="#000000" fill-rule="nonzero" fill-opacity="1" /><path clip-path="url(#clip050)" d="M2249.47 1332.26 Q2244.3 1332.26 2242.31 1333.44 Q2240.32 1334.63 2240.32 1337.47 Q2240.32 1339.74 2241.8 1341.08 Q2243.31 1342.4 2245.88 1342.4 Q2249.42 1342.4 2251.55 1339.9 Q2253.7 1337.38 2253.7 1333.21 L2253.7 1332.26 L2249.47 1332.26 M2257.96 1330.5 L2257.96 1345.3 L2253.7 1345.3 L2253.7 1341.36 Q2252.24 1343.72 2250.07 1344.86 Q2247.89 1345.97 2244.74 1345.97 Q2240.76 1345.97 2238.4 1343.75 Q2236.06 1341.5 2236.06 1337.75 Q2236.06 1333.38 2238.98 1331.15 Q2241.92 1328.93 2247.73 1328.93 L2253.7 1328.93 L2253.7 1328.51 Q2253.7 1325.57 2251.76 1323.98 Q2249.84 1322.36 2246.34 1322.36 Q2244.12 1322.36 2242.01 1322.89 Q2239.91 1323.42 2237.96 1324.49 L2237.96 1320.55 Q2240.3 1319.65 2242.5 1319.21 Q2244.7 1318.75 2246.78 1318.75 Q2252.41 1318.75 2255.18 1321.66 Q2257.96 1324.58 2257.96 1330.5 Z" fill="#000000" fill-rule="nonzero" fill-opacity="1" /></svg>
